<?xml version="1.0" encoding="utf-8"?>
<!-- Generator: Adobe Illustrator 23.0.1, SVG Export Plug-In . SVG Version: 6.00 Build 0)  -->
<svg version="1.1" id="Layer_1" xmlns="http://www.w3.org/2000/svg" xmlns:xlink="http://www.w3.org/1999/xlink" x="0px" y="0px"
	 viewBox="0 0 128.2 128.2" style="enable-background:new 0 0 128.2 128.2;" xml:space="preserve">
<style type="text/css">
	.st0{fill:#1958AF;}
	.st1{fill:#4C98D6;}
</style>
<path class="st0" d="M97.6,128.2c-1.9-0.4-3.8-0.7-5.6-1.3c-11.8-3.6-19.7-15.1-18.9-27.4c0.7-12.3,10-22.8,22.1-24.9
	c15.1-2.7,29.3,7.4,31.6,22.4c2.4,15-8.3,29.1-23.4,30.9c-0.3,0-0.6,0.1-0.8,0.2C101,128.2,99.3,128.2,97.6,128.2z M112.1,120.7
	C103,108.4,94,96.2,85,84c-7.6,6.1-11.3,19.3-3.8,30.1C88.4,124.8,102.4,126.9,112.1,120.7z"/>
<g>
	<path class="st1" d="M73.3,0C76,0.5,77.6,2.3,79,4.5c3.8,6,7.7,11.9,11.6,17.8c0.4,0.6,1.1,1.1,1.8,1.4c3.7,1.2,7.4,2.3,11.1,3.4
		c2,0.6,3.1,1.7,3.1,3.2c0,1.6-1,2.9-3,3.5c-4.2,1.2-8.4,2.5-12.6,3.5c-1.7,0.4-2.6,1.2-3.2,2.9c-1.7,4.9-4.1,9.4-7,13.8
		c0.4,0,0.7,0.1,1,0.1c3,0,6.1,0,9.1,0c0.7,0,1.6,0.2,2.2,0.7c5.5,3.8,11,7.6,16.4,11.4c1.8,1.3,1.7,2.7-0.2,3.9
		c-1,0.7-1.9,0.9-3.1,0.6c-1.3-0.4-2.7-0.4-4.3-0.7c1.1-0.7,2.1-1.3,3.1-1.9c-0.4-0.3-0.6-0.5-0.9-0.7c-3.7-2.6-7.4-5.2-11-7.8
		c-0.7-0.5-1.2-0.6-1.9,0.1C83.1,67.4,75,75,66.9,82.8c-0.4,0.4-0.8,1.2-0.8,1.8c-0.1,5.5,0,26,0,31.5c0,0.3,0,0.6,0,0.9
		c0,1.3-0.8,2.1-1.9,2.2c-1.2,0-2-0.8-2.1-2.2c0-4.6,0-24.3,0-28.9c0-1.9,0.5-4-0.2-5.5s-2.6-2.5-3.9-3.8c-7-6.3-14-12.7-20.9-19
		c-0.7-0.7-1.2-0.7-2-0.1c-3.6,2.6-7.2,5.1-10.8,7.7c-0.3,0.2-0.6,0.5-1.1,0.8c0.5,0.3,0.9,0.6,1.2,0.8c8,5.1,16.2,9.5,24.7,13.7
		c1.5,0.8,2.1,1.7,2.1,3.4c-0.1,14.1-0.2,28.1-0.3,42.2c-15.6,0-31.2,0-46.8,0c-1.8-0.6-3.3-1.6-4-3.5c0-0.7,0-1.3,0-2
		c5.7-12.4,11.4-24.7,17-37.1c0.6-1.4,1.5-2.2,3-2.7c3.5-1.2,7-2.6,10.5-4c0.4-0.2,0.9-0.4,1.4-0.6c-0.5-0.3-0.9-0.6-1.3-0.8
		c-3.9-2.4-7.8-4.7-11.6-7.1C17,69.2,17,67.8,19,66.4c5.3-3.7,10.6-7.5,16-11.2c0.7-0.5,1.7-0.8,2.6-0.8c2.9-0.1,5.8,0,8.9,0
		c-0.2-0.3-0.2-0.5-0.3-0.6c-3-4.9-5.3-10.2-7-15.7c-0.1-0.4-0.7-0.8-1.1-1c-4.2-1.4-8.4-2.7-12.6-4.1c-0.9-0.3-1.9-0.7-2.7-1.2
		c-1.6-1.1-1.6-3.2,0.1-4.3c0.7-0.5,1.5-0.7,2.3-0.9c3.9-0.9,7.9-1.8,11.8-2.7c0.6-0.1,1.3-0.7,1.5-1.2c3.2-5.8,6.3-11.5,9.4-17.4
		c1.3-2.4,2.9-4.3,5.5-5c0.8,0,1.7,0,2.5,0c1.7,0.8,3.3,1.6,5,2.5c2.3,1.1,4.6,1,6.8-0.3c1.4-0.8,3-1.5,4.4-2.2
		C72.5,0,72.9,0,73.3,0z M83.8,39.3c-0.7,0.2-1.1,0.3-1.5,0.4c-4.5,1.2-9,2.5-13.5,3.7c-2.5,0.7-5,1-7.5,0.4
		c-2.9-0.6-5.7-1.5-8.5-2.4c-3-0.9-6-1.9-9.4-3c1.1,2.6,1.9,5,3,7.2c2.1,4.4,4.4,8.7,8.3,11.9c5.5,4.6,13,4.7,17.9,0
		C77.7,52.5,81.1,46.2,83.8,39.3z M87.3,24.7c-1.5-2.2-2.8-4.3-4.2-6.4c-2.8-4.3-5.5-8.5-8.3-12.8c-0.9-1.3-2-1.7-3.3-1
		c-1.8,0.9-3.6,1.9-5.4,2.9c0,7.5,0,15.2,0,23.1C73.2,28.5,80.2,26.6,87.3,24.7z M62,7.2c-1-0.4-2-0.7-2.9-1.1s-1.8-1-2.8-1.4
		c-2.1-1.1-3.4-0.7-4.5,1.4c-3.1,5.7-6.1,11.4-9.2,17c-0.2,0.3-0.3,0.7-0.5,1.1c6.7,2.1,13.3,4.1,19.9,6.2C62,22.5,62,14.8,62,7.2z
		 M32.1,104.1c1.6,0,3.2,0,4.7,0c1.3,0,2.2-0.8,2.2-2c0-1.1-0.9-2-2.1-2c-3.2,0-6.5,0-9.7,0c-1.3,0-2.1,0.8-2.1,2s0.8,2,2.2,2
		C28.9,104.2,30.5,104.1,32.1,104.1z"/>
	<path class="st1" d="M115.7,128.2c1.7-1.3,3.3-2.6,5.1-3.8c0.4-0.2,0.9-0.2,1.4-0.2c0.7-0.1,1.3-0.2,2.3-0.3
		c-2.3-2.9,0.9-3.7,1.7-5.6c0.7,1.4,1.3,2.9,2,4.3c0,0.7,0,1.3,0,2c-0.7,1.8-2.1,2.8-3.8,3.5C121.5,128.2,118.6,128.2,115.7,128.2z"
		/>
	<path class="st1" d="M81.4,128.2c-0.9-0.8-1.7-1.6-0.9-3c1.4,1,2.8,2,4.2,3C83.5,128.2,82.4,128.2,81.4,128.2z"/>
</g>
</svg>
