<?xml version="1.0" encoding="utf-8"?>
<!-- Generator: Adobe Illustrator 23.0.1, SVG Export Plug-In . SVG Version: 6.00 Build 0)  -->
<svg version="1.1" id="Layer_1" xmlns="http://www.w3.org/2000/svg" xmlns:xlink="http://www.w3.org/1999/xlink" x="0px" y="0px"
	 viewBox="0 0 85.1 95.3" style="enable-background:new 0 0 85.1 95.3;" xml:space="preserve">
<style type="text/css">
	.st0{fill:#4C98D6;}
	.st1{fill:#1958AF;}
</style>
<path class="st0" d="M22,40.9c-3.1,0.7-6.7-1.5-7.1-4.8c-0.3-2.9-0.2-5.8-0.1-8.7c0.1-1.7,1.2-3,2.6-4.1c0.3-0.2,0.6-0.7,0.7-1.1
	c0.6-5.5,2.5-10.5,6.4-14.6C29.3,2.5,35.3-0.2,42.3,0c13.5,0.5,22.6,10.5,23.8,21.7c0.1,0.8,0.3,1.3,1,1.7c1.6,1.1,2.4,2.7,2.4,4.7
	c0,2.2,0,4.3,0,6.5c0,2.5-1.2,4.4-3.5,5.6c-0.5,0.3-0.7,0.6-0.7,1.2c0,0.9,0.1,1.8-0.1,2.6c-0.7,3.4-3.4,5.8-7,5.7
	c-1.1,0-1.8,0.4-2.5,1.2c-3.6,3.9-7.9,6.5-13.3,6.4c-4.5-0.1-8.2-2.1-11.5-5c-3.5-3-6.3-6.6-8.4-10.8c-0.1-0.2-0.2-0.4-0.3-0.6
	C22.1,40.9,22.1,40.9,22,40.9z M47.8,47.3c0.2,0.1,0.3,0.1,0.4,0.1c2.5,0,5.1,0,7.6,0c0.3,0,0.7-0.4,0.9-0.7
	c3.4-5.3,5.1-11,4.8-17.3c-0.1-1.3-0.1-1.4-1.4-1.3c-3.9,0.1-7.7,0-11.5-0.9c-5-1.2-8.8-4.2-11.8-8.3c-0.8-1.1-1.2-1-1.8,0.2
	c0,0.1-0.1,0.2-0.1,0.3c-1.9,4.3-4.9,7.4-9.7,8.3c-0.8,0.2-1.1,0.5-1.1,1.3c-0.1,3.4,0.2,6.7,1.1,10c1.9,6.5,5.4,11.7,11.6,14.8
	c2.7,1.4,5.5,2.2,8.5,1.5c2.5-0.5,4.7-1.7,6.7-3.3c0.8-0.6,1.5-1.2,2.2-1.8c0-0.1-0.1-0.2-0.1-0.2c-0.3,0-0.7,0-1,0
	c-3.5,0-7.1,0-10.6,0c-1.3,0-1.7-0.4-1.7-1.7c0-0.9,0-1.9,0-2.8c0.1-1.4,0.9-2.2,2.3-2.2c0.9,0,1.8,0,2.7,0c1.4,0,2.2,0.8,2.2,2.2
	C47.8,46.1,47.8,46.7,47.8,47.3z M59,47.3c0.1,0,0.2,0,0.3,0c2.5-0.3,4.5-3.6,3.7-5.9c-0.1-0.1-0.2-0.3-0.4-0.4
	c-0.1,0-0.3,0.1-0.3,0.2C61.2,43.3,60.1,45.3,59,47.3z"/>
<path class="st0" d="M20.2,95.3c-5,0-10,0-15,0c-1.6,0-2.7-0.6-3.6-1.8c-1-1.4-1.5-3-1.6-4.7c-0.2-4.4,0.4-8.7,2.1-12.8
	c1-2.4,2.8-4.2,5.1-5.4c5.4-2.8,11.2-4.6,17-6.3c0.7-0.2,1.2,0.1,1.5,0.8c3.6,9.7,7.3,19.5,11,29.2c0.3,0.9,0.2,1.1-0.9,1.1
	C30.6,95.3,25.4,95.3,20.2,95.3z"/>
<path class="st0" d="M64.8,95.3c-5.1,0-10.2,0-15.3,0c-1.4,0-1.5-0.1-1-1.4c3.6-9.6,7.2-19.1,10.8-28.7c0.3-0.8,0.7-1.3,1.6-1
	c5.2,1.5,10.3,3.3,15.3,5.4c4.8,2.1,7.2,5.8,8.2,10.7c0.6,3.2,1,6.4,0.5,9.6c-0.2,1.8-1.1,3.4-2.6,4.5c-0.6,0.4-1.5,0.7-2.3,0.7
	C74.9,95.4,69.8,95.3,64.8,95.3z"/>
<path class="st1" d="M42.5,95.1c-2.1,0-1.7,0.3-2.5-1.7c-1.4-3.7-2.7-7.4-4.1-11c-0.4-0.9-0.3-1.7,0.2-2.6c1-1.7,1.9-3.4,2.8-5.1
	c0.5-0.9,0.4-1.5-0.4-2.1c-1.3-1.2-2.5-2.5-3.2-4.2c-0.8-2.2-0.2-4.2,1.8-5.4c3.3-2,6.8-1.9,10.1,0c1.9,1.1,2.5,3,1.8,5.1
	c-0.6,1.7-1.8,3-3.1,4.2c-1.2,1.1-1.2,1.3-0.4,2.7c1,1.8,2.1,3.5,3.1,5.2c0.5,0.8,0.5,1.4,0.2,2.3c-1.4,3.6-2.7,7.2-4.1,10.8
	C44.1,95.4,44.5,95.1,42.5,95.1z"/>
</svg>
