<svg xmlns="http://www.w3.org/2000/svg" width="111" height="77" viewBox="0 0 111 77">
  <defs>
    <style>
      .cls-1 {
        fill: #fff;
        fill-rule: evenodd;
      }
    </style>
  </defs>
  <path class="cls-1" d="M745,4415v-3.96h40.484v-2.33H748.811v-4.12h4.753v-36.44h31.894a2.257,2.257,0,0,0,.1-0.64c-0.43-2.05.65-3.14,2.229-4.23,4.008-2.76,7.9-5.69,11.807-8.6a1.115,1.115,0,0,1,1.606-.01q6.508,4.77,13.088,9.45a2.27,2.27,0,0,1,1.105,2.15c-0.044,2.05-.363,1.86,1.864,1.86q14.409,0.015,28.818,0h1.219v36.4h4.841v4.13H817.294c-2.114,0-2.114,0-1.815,2.3H856V4415H745Zm60.4-9.48c0.036-.28.07-0.42,0.071-0.56,0-5.08.015-10.15,0-15.22a5.3,5.3,0,0,0-.3-1.62,5.012,5.012,0,0,0-5.61-3.37,4.945,4.945,0,0,0-4.193,4.8c-0.055,5.19-.018,10.37-0.012,15.56a1.716,1.716,0,0,0,.113.41H805.4Zm0.837-39.01a5.756,5.756,0,1,0-5.788,5.82A5.8,5.8,0,0,0,806.237,4366.51Zm-38.21,9.7c0,2.8-.013,5.48.025,8.15a0.839,0.839,0,0,0,.577.57c1.517,0.05,3.037.03,4.609,0.03v-8.75h-5.211Zm7.9,8.76c1.549,0,2.965-.03,4.379.01a0.72,0.72,0,0,0,.865-0.9c-0.029-2.28-.009-4.55-0.016-6.83,0-.35-0.047-0.7-0.072-1.04h-5.156v8.76Zm56.748-8.83c-1.6,0-3.087-.03-4.573.03a0.91,0.91,0,0,0-.63.62c-0.045,2.5-.042,5,0,7.5a0.849,0.849,0,0,0,.508.64c1.553,0.05,3.108.03,4.7,0.03v-8.82Zm7.8,8.79v-8.72h-5.092v8.72h5.092Zm-67.246,12.18v-8.78c-1.451,0-2.83.04-4.206-.01a0.8,0.8,0,0,0-1.01.99c0.045,2.32.01,4.63,0.017,6.95a6.968,6.968,0,0,0,.109.85h5.09Zm2.723-8.78v8.72h5.208c0-2.75.015-5.4-.028-8.05a0.905,0.905,0,0,0-.613-0.64C779.026,4388.3,777.533,4388.33,775.948,4388.33Zm59.42,0.07v8.68H840.5v-8.68h-5.134Zm-2.722-.07c-1.478,0-2.892.03-4.3-.02-0.749-.02-0.926.3-0.916,0.99,0.031,2.02.011,4.04,0.012,6.06v1.71h5.207v-8.74Zm-12.923-3.45h5.114v-8.67h-5.114v8.67Zm5.183,12.22c0-2.79.015-5.5-.032-8.21a0.97,0.97,0,0,0-.711-0.54c-1.235-.05-2.474,0-3.711-0.03a0.676,0.676,0,0,0-.8.85c0.028,1.14.007,2.28,0.007,3.41v4.52h5.25Zm-59.5-12.2v-8.69h-5.1v8.69h5.1Zm0.072,12.19c0-2.76.022-5.41-.036-8.04a1.082,1.082,0,0,0-.8-0.68c-1.161-.08-2.331,0-3.5-0.05a0.774,0.774,0,0,0-.926.97c0.029,2.35.006,4.7,0.013,7.05a5.1,5.1,0,0,0,.12.75h5.122Zm54.616-30.71c-6.622-4.94-13.072-9.75-19.607-14.63-6.491,4.96-12.971,9.9-19.577,14.94,0-1.36.079-2.58-.022-3.78a2.613,2.613,0,0,1,1.3-2.53c5.637-4.19,11.22-8.46,16.844-12.68a1.772,1.772,0,0,0,.8-1.64c-0.043-2.25-.019-4.49-0.014-6.74,0-1.42.008-1.34,1.4-1.31,2.773,0.06,5.55.07,8.323,0.01,1-.02,1.34.27,1.289,1.29-0.081,1.61-.022,3.23-0.022,4.94h-9.463c-0.586,1.96-.351,2.72,1.135,3.84,5.549,4.19,11.089,8.4,16.657,12.56a2.084,2.084,0,0,1,.969,1.92C820.055,4363.77,820.094,4364.98,820.094,4366.38Zm-19.647.05c0-1.17-.06-2.13.031-3.08a3.065,3.065,0,0,1,.632-1.05,2.641,2.641,0,0,1,.6.99c0.068,1.43.029,2.86,0.029,4.44-1.744,0-3.41.03-5.073-.03a1.907,1.907,0,0,1-.715-0.64,2.039,2.039,0,0,1,.765-0.6C797.91,4366.4,799.106,4366.43,800.447,4366.43Z" transform="translate(-745 -4338)"/>
</svg>
