<svg xmlns="http://www.w3.org/2000/svg" width="92.031" height="72.94" viewBox="0 0 92.031 72.94">
  <defs>
    <style>
      .cls-1 {
        fill: #fff;
        fill-rule: evenodd;
      }
    </style>
  </defs>
  <path class="cls-1" d="M753.98,3249v-5.34h6.831v-1.12q0-25.665-.019-51.33a3.024,3.024,0,0,1,1.881-3.02c7.666-3.89,15.3-7.83,22.953-11.76,1.369-.7,1.727-0.48,1.729,1.07,0,2.82,0,5.65,0,8.55h25.289v-0.99c0-2.59-.007-5.17,0-7.76,0-1.29.411-1.53,1.573-.94q11.682,5.985,23.364,11.96a2.754,2.754,0,0,1,1.616,2.72q-0.029,25.335-.012,50.69v1.85h6.8V3249H753.98Zm39.773-27.6v22.16h12.5V3221.4h-12.5Zm14.169-22.72H792.1v4.15h15.82v-4.15Zm0,11.33H792.109v4.13h15.812v-4.13Zm-42.458-14.79v11.06c1.5,0,2.945.02,4.385-.02a0.786,0.786,0,0,0,.5-0.57q0.045-4.92,0-9.86a0.837,0.837,0,0,0-.563-0.59C768.367,3195.19,766.955,3195.22,765.463,3195.22Zm12.362,11.06c1.551,0,2.994.02,4.434-.03a0.772,0.772,0,0,0,.475-0.58c0.03-3.29.028-6.57,0-9.86a0.753,0.753,0,0,0-.4-0.56c-1.493-.04-2.988-0.02-4.507-0.02v11.05Zm44.321,0v-11.06c-1.506,0-2.947-.02-4.386.02a0.782,0.782,0,0,0-.492.57q-0.047,4.935,0,9.86a0.758,0.758,0,0,0,.477.58C819.184,3206.3,820.627,3206.28,822.146,3206.28Zm12.416-11.06c-1.524,0-2.936-.03-4.346.03a0.815,0.815,0,0,0-.555.59c-0.035,3.29-.03,6.57-0.01,9.86a0.7,0.7,0,0,0,.328.54c1.521,0.04,3.044.02,4.583,0.02v-11.04Zm-69.129,27.52c1.547,0,2.989.02,4.429-.03a0.759,0.759,0,0,0,.481-0.58q0.047-4.92,0-9.86a0.733,0.733,0,0,0-.4-0.56c-1.5-.04-2.991-0.03-4.516-0.03v11.06Zm12.39,0c1.549,0,2.991.02,4.431-.03a0.759,0.759,0,0,0,.48-0.58c0.03-3.29.029-6.57,0-9.86a0.717,0.717,0,0,0-.4-0.56c-1.494-.04-2.99-0.03-4.513-0.03v11.06Zm44.355-11.07c-1.541,0-2.983-.02-4.422.03a0.782,0.782,0,0,0-.489.57q-0.045,4.935,0,9.86a0.734,0.734,0,0,0,.393.57c1.5,0.04,2.993.03,4.521,0.03v-11.06Zm12.347,11.07v-11.07c-1.489,0-2.9-.02-4.311.03a0.841,0.841,0,0,0-.554.6q-0.052,4.92,0,9.86a0.761,0.761,0,0,0,.5.55C831.6,3222.76,833.043,3222.74,834.525,3222.74Zm-69.073,16.45c1.506,0,2.975.01,4.442-.03a0.686,0.686,0,0,0,.449-0.52q0.041-4.965,0-9.95a0.71,0.71,0,0,0-.429-0.53c-1.469-.04-2.941-0.03-4.462-0.03v11.06Zm12.373,0c1.535,0,2.976.02,4.414-.03a0.768,0.768,0,0,0,.493-0.56q0.047-4.935.007-9.86a0.736,0.736,0,0,0-.388-0.57c-1.5-.05-3-0.03-4.526-0.03v11.05Zm44.314,0v-11.06c-1.484,0-2.9-.03-4.306.02a0.835,0.835,0,0,0-.563.59c-0.035,3.29-.033,6.57,0,9.86a0.753,0.753,0,0,0,.5.56C819.2,3239.21,820.643,3239.19,822.139,3239.19Zm12.424-11.06c-1.506,0-2.976-.02-4.443.03a0.8,0.8,0,0,0-.463.59c-0.03,3.26-.029,6.51-0.008,9.77a0.812,0.812,0,0,0,.335.62c1.52,0.05,3.042.03,4.579,0.03v-11.04Z" transform="translate(-753.969 -3176.06)"/>
</svg>
