<svg xmlns="http://www.w3.org/2000/svg" width="87.031" height="89" viewBox="0 0 87.031 89">
  <defs>
    <style>
      .cls-1 {
        fill: #fff;
        fill-rule: evenodd;
      }
    </style>
  </defs>
  <path class="cls-1" d="M799.1,2608.92c-0.58,0-1.161,0-1.741-.01-1.518-.02-2.169-0.64-2.175-2.14q-0.024-6.27,0-12.52a1.863,1.863,0,0,1,2.131-2.1c0.539-.01,1.079,0,1.618,0l0.172-.27c-0.521-.48-1.074-0.93-1.557-1.44a1.664,1.664,0,0,1,0-2.58q4.628-4.71,9.3-9.37a1.635,1.635,0,0,1,2.488-.03c0.286,0.26.539,0.54,0.812,0.81,0.242,0.24.491,0.47,0.938,0.9,0-.89-0.018-1.57,0-2.24a1.759,1.759,0,0,1,1.933-1.94q6.369-.03,12.738,0a1.723,1.723,0,0,1,1.939,1.92c0.021,0.61,0,1.23,0,2.14,0.7-.69,1.188-1.2,1.7-1.69a1.661,1.661,0,0,1,2.634.01q4.6,4.59,9.155,9.22a1.717,1.717,0,0,1,.018,2.73c-0.448.48-.948,0.9-1.425,1.35,0.032,0.1.063,0.21,0.094,0.32,0.623,0,1.248-.02,1.871,0a2.069,2.069,0,0,1,2.234,2.29q0.018,6.255,0,12.52a1.838,1.838,0,0,1-2.1,2.11c-0.609.02-1.218,0.01-1.827,0.01-0.057.09-.115,0.18-0.172,0.28,0.5,0.46,1.02.89,1.487,1.38a1.716,1.716,0,0,1,.057,2.66q-4.59,4.665-9.226,9.29a1.65,1.65,0,0,1-2.634-.01c-0.492-.48-0.915-1.03-1.37-1.55-0.11.05-.22,0.09-0.33,0.14,0,0.66.009,1.32,0,1.98a1.75,1.75,0,0,1-1.947,2.01q-6.37.015-12.739-.01a1.756,1.756,0,0,1-1.914-1.95c-0.017-.66,0-1.32,0-2.28-0.654.65-1.138,1.15-1.635,1.63a1.678,1.678,0,0,1-2.7.02q-4.593-4.605-9.152-9.23a1.713,1.713,0,0,1,.032-2.73c0.45-.47.94-0.9,1.412-1.34C799.186,2609.11,799.144,2609.01,799.1,2608.92Zm33.549-8.61a13.073,13.073,0,1,0-13.063,13.25A13.244,13.244,0,0,0,832.65,2600.31Zm-16.758,31.36h1.95c0-.64-0.025-1.23.006-1.81a1.725,1.725,0,0,1,3.407-.35,25.752,25.752,0,0,1-.015,4.46,1.589,1.589,0,0,1-1.754,1.31c-0.538.02-1.078,0-1.824,0,1.279,1.88,2.436,3.59,3.6,5.3a9.483,9.483,0,0,1,1.818,4.91,9.711,9.711,0,0,1-9.941,10.62c-10.185.03-20.37,0.01-30.555,0.01-5.248,0-10.5.04-15.744-.01a9.8,9.8,0,0,1-9.4-12.8,12.454,12.454,0,0,1,1.478-2.96c1.091-1.72,2.279-3.38,3.556-5.26-0.706,0-1.236.01-1.765,0a1.737,1.737,0,0,1-1.912-1.85c-0.035-1.18-.034-2.37.006-3.55a1.59,1.59,0,0,1,1.583-1.7,1.711,1.711,0,0,1,1.892,1.53,16.31,16.31,0,0,1,.015,2.02h2.127c0.429-2.46.773-4.89,1.3-7.28a20.621,20.621,0,0,1,1.625-5.33,11.55,11.55,0,0,1,10.525-6.42c5.074-.1,10.15-0.02,15.226-0.04a0.983,0.983,0,0,1,1.072.8,20.632,20.632,0,0,0,1.568,2.72h-3.659v3.57a1.727,1.727,0,0,1,1.678,1.62,1.77,1.77,0,0,1-1.8,1.98c-1,.05-2,0.02-3,0.01-1.414,0-2.074-.46-2.222-1.5s0.342-1.68,1.7-2.16v-3.28a0.44,0.44,0,0,0-.177-0.13c-3.762,0-7.543-.23-11.28.07a7.76,7.76,0,0,0-7.109,5.96c-0.867,3.09-1.289,6.31-1.919,9.53h44.357c-0.216-1.22-.419-2.37-0.623-3.53h3.445C815.387,2629.32,815.633,2630.46,815.892,2631.67Zm-39.8,12.71a5.111,5.111,0,1,0-5.041,4.93A4.865,4.865,0,0,0,776.09,2644.38Zm33.107-5.35a5.14,5.14,0,1,0,5.091,5.18A5.122,5.122,0,0,0,809.2,2639.03Zm-19.162,3.36c2.21,0,4.419.01,6.629,0a1.785,1.785,0,0,0,2.041-1.83,1.767,1.767,0,0,0-2.033-1.72c-4.384-.01-8.769,0-13.153,0-1.335,0-2.09.65-2.1,1.76s0.772,1.78,2.086,1.79C785.685,2642.4,787.86,2642.39,790.035,2642.39Zm0.073,6.93q3.261,0,6.524-.01c1.312,0,2.083-.67,2.077-1.77s-0.79-1.77-2.11-1.78q-6.576-.015-13.152,0a1.8,1.8,0,0,0-2.024,1.76c-0.023,1.11.734,1.79,2.057,1.79Q786.794,2649.325,790.108,2649.32Zm25.856,10.37a6.7,6.7,0,0,1-7.242,5.29,6.456,6.456,0,0,1-6.215-5.29h13.457Zm-51.582.09h13.34a6.87,6.87,0,0,1-6.493,5.21A6.625,6.625,0,0,1,764.382,2659.78Z" transform="translate(-756.969 -2576)"/>
</svg>
