<svg xmlns="http://www.w3.org/2000/svg" width="71" height="82" viewBox="0 0 71 82">
  <defs>
    <style>
      .cls-1 {
        fill: #fff;
        fill-rule: evenodd;
      }
    </style>
  </defs>
  <path class="cls-1" d="M796.24,3831c-1.548-.16-3.1-0.3-4.643-0.48a65.2,65.2,0,0,1-27.12-9.46,0.984,0.984,0,0,1-.473-0.99c0.01-3.82.029-7.63,0-11.45-0.046-5.99,2.786-10.19,7.908-12.93a16.908,16.908,0,0,1,9.175-1.72v14.48c2.285-1.41,4.413-2.73,6.628-4.1,1.646,2.86,3.273,5.68,4.92,8.53,2.264-1.49,4.474-2.94,6.776-4.45-4.634-5.35-9.221-10.65-13.819-15.96,0.615-.8,1.219-1.6,1.821-2.39,7.656,6.86,17.346,6.17,24.141-.18,0.656,0.82,1.311,1.63,2.032,2.54-2.3,2.65-4.627,5.34-6.953,8.03-2.314,2.67-4.627,5.34-7.02,8.1,2.2,1.45,4.359,2.87,6.561,4.31,1.651-2.86,3.268-5.67,4.916-8.53,2.18,1.35,4.312,2.67,6.577,4.07v-14.45a17.322,17.322,0,0,1,7.562,1.01c4.614,1.82,7.951,4.91,9.311,9.85a12.227,12.227,0,0,1,.414,3.07c0.046,4.06.011,8.12,0.03,12.17a1.049,1.049,0,0,1-.553,1.03,63.192,63.192,0,0,1-24.6,9.1c-2.063.3-4.151,0.44-6.227,0.66-0.233.03-.462,0.09-0.693,0.14H796.24Zm4.922-82a38.8,38.8,0,0,1,4.806,1.27,17.767,17.767,0,0,1,9.878,23.3,23.285,23.285,0,0,0-.713,3.1,22.155,22.155,0,0,1-4.771,9.46c-6.151,7.03-15.742,6.96-21.8-.18a22.541,22.541,0,0,1-5.007-11.4,5.635,5.635,0,0,0-.335-1.22c-4.154-10.21,2.356-22.12,13.142-24.02,0.544-.1,1.085-0.21,1.627-0.31h3.176Zm10.928,16.86a13.416,13.416,0,0,1-6.175.02,18.228,18.228,0,0,1-8.739-5.24,1.305,1.305,0,0,0-.981-0.4,14.992,14.992,0,0,0-6.484,3.01,7.183,7.183,0,0,0-3.007,6.27c0.042,0.59-.012,1.18.014,1.76a19.438,19.438,0,0,0,4.607,12.48,10.632,10.632,0,0,0,8.712,3.99,10.831,10.831,0,0,0,7.823-4.04,19.154,19.154,0,0,0,4.55-12.57C812.45,3769.43,812.211,3767.71,812.09,3765.86Z" transform="translate(-764 -3749)"/>
</svg>
