<svg xmlns="http://www.w3.org/2000/svg" width="18" height="18" viewBox="0 0 18 18">
  <defs>
    <style>
      .cls-1 {
        fill: #fff;
        fill-rule: evenodd;
      }
    </style>
  </defs>
  <path class="cls-1" d="M212,20.768a8.851,8.851,0,0,1-13.108,7.677L194,30l1.595-4.7a8.673,8.673,0,0,1-1.268-4.527A8.837,8.837,0,0,1,212,20.768ZM203.164,13.4a7.41,7.41,0,0,0-7.43,7.372,7.292,7.292,0,0,0,1.416,4.322l-0.929,2.738,2.855-.908A7.391,7.391,0,1,0,203.164,13.4Zm4.462,9.391a1.113,1.113,0,0,0-.415-0.25c-0.217-.108-1.282-0.628-1.48-0.7a0.34,0.34,0,0,0-.488.107c-0.144.215-.56,0.7-0.686,0.842a0.333,0.333,0,0,1-.469.054,5.912,5.912,0,0,1-1.742-1.067,6.454,6.454,0,0,1-1.205-1.488,0.311,0.311,0,0,1,.095-0.438c0.1-.1.217-0.251,0.325-0.377a1.461,1.461,0,0,0,.216-0.359,0.389,0.389,0,0,0-.018-0.377c-0.054-.107-0.487-1.165-0.668-1.6s-0.36-.358-0.487-0.358-0.271-.018-0.415-0.018a0.8,0.8,0,0,0-.578.269,2.4,2.4,0,0,0-.758,1.793,4.155,4.155,0,0,0,.885,2.223,8.852,8.852,0,0,0,3.7,3.244c2.2,0.86,2.2.573,2.6,0.538a2.188,2.188,0,0,0,1.462-1.021A1.784,1.784,0,0,0,207.626,22.787Z" transform="translate(-194 -12)"/>
</svg>
