<svg xmlns="http://www.w3.org/2000/svg" width="20" height="20" viewBox="0 0 20 20">
  <defs>
    <style>
      .cls-1 {
        fill: #0b193c;
        fill-rule: evenodd;
      }
    </style>
  </defs>
  <path id="Forma_1" data-name="Forma 1" class="cls-1" d="M1328,91a2,2,0,1,0,2,2A2.006,2.006,0,0,0,1328,91Zm-6-16v2h2l3.6,7.6-1.4,2.4a3.55,3.55,0,0,0-.2,1,2.006,2.006,0,0,0,2,2h12V88h-11.6a0.215,0.215,0,0,1-.2-0.2V87.7l0.9-1.7h7.4a1.823,1.823,0,0,0,1.7-1l3.6-6.5a0.55,0.55,0,0,0,.2-0.5,0.945,0.945,0,0,0-1-1h-14.8l-0.9-2H1322Zm16,16a2,2,0,1,0,2,2A2.006,2.006,0,0,0,1338,91Z" transform="translate(-1322 -75)"/>
</svg>
