<?xml version="1.0" encoding="utf-8"?>
<!-- Generator: Adobe Illustrator 23.0.1, SVG Export Plug-In . SVG Version: 6.00 Build 0)  -->
<svg version="1.1" id="Layer_1" xmlns="http://www.w3.org/2000/svg" xmlns:xlink="http://www.w3.org/1999/xlink" x="0px" y="0px"
	 viewBox="0 0 156 156" style="enable-background:new 0 0 156 156;" xml:space="preserve">
<style type="text/css">
	.st0{fill:#FFFFFF;}
	.st1{opacity:5.000000e-02;fill:#1D1D1B;}
</style>
<g>
	<path class="st0" d="M78,0C34.9,0,0,34.9,0,78s34.9,78,78,78c43.1,0,78-34.9,78-78S121.1,0,78,0z M128.2,46.6
		c-5,9.6-62.1,78.1-71.8,78.1c-8.8,0-38.1-54.6-29.6-56.1c8.5-1.5,29.1,26.1,29.1,26.1S136.4,30.9,128.2,46.6z"/>
	<path class="st1" d="M78,0c43.1,0,78,34.9,78,78s-34.9,78-78,78V0z"/>
</g>
</svg>
