<svg xmlns="http://www.w3.org/2000/svg" width="113" height="112" viewBox="0 0 113 112">
  <defs>
    <style>
      .cls-1 {
        fill: #fff;
        fill-rule: evenodd;
      }
    </style>
  </defs>
  <path class="cls-1" d="M215.1,5655.65c2.033,0,4.024.02,6.014-.01,3.15-.05,6.3-0.13,9.45-0.2,2.966-.07,3.57.47,3.822,3.42,0.029,0.34.072,0.68,0.109,1.03,1.835,0,3.626.04,5.413-.01,5.762-.17,11.553-0.51,17.209.86a35.2,35.2,0,0,1,8.527,3.01,38.018,38.018,0,0,0,15.965,4.35c3.1,0.19,6.208.34,9.315,0.47a5.113,5.113,0,0,1,5.2,4.94,4.975,4.975,0,0,1-5.031,5.43c-7.987.26-15.975,0.45-23.963,0.68a9.325,9.325,0,0,0-1.832.15,1.281,1.281,0,0,0-.839,2.17,2.466,2.466,0,0,0,2.391,1.07c6.376-.17,12.752-0.3,19.128-0.47,1.994-.05,4-0.07,5.978-0.27a8.8,8.8,0,0,0,5.335-2.73,4.564,4.564,0,0,1,1.4-.96c7.3-2.92,14.6-5.86,21.939-8.7a13.21,13.21,0,0,1,4.362-.81,2.952,2.952,0,0,1,2.5,4.62,6.016,6.016,0,0,1-2.018,1.98q-18.671,10.41-37.4,20.72c-5.57,3.07-11.515,3.21-17.459,1.62-9.483-2.55-18.892-5.37-28.332-8.07l-6.933-2.01c0,0.68.014,1.24,0,1.79a2.388,2.388,0,0,1-2.554,2.64c-1.649.08-3.3,0.1-4.951,0.14a2.236,2.236,0,0,1-2.054-1.22,68.029,68.029,0,0,1-10.165-28.82q-0.328-3.045-.634-6.09A5.185,5.185,0,0,1,215.1,5655.65Zm81.345-20.92c-1.383,0-2.769.05-4.147-.04a1.311,1.311,0,0,1-.987-0.72,38.237,38.237,0,0,1,.588-11.04c0.787-3.5,2.906-6,5.654-8.16a34.864,34.864,0,0,0,6.189-5.64c4.372-5.64.778-10.77-4.523-12.11a9.879,9.879,0,0,0-12.065,6.5c-0.907,2.44-.9,2.43-3.45,2.12-2.209-.27-4.419-0.54-6.634-0.75a1.19,1.19,0,0,1-1.274-1.63,16.758,16.758,0,0,1,9.942-13.4c8.288-3.97,16.585-3.92,24.489,1.06a15.474,15.474,0,0,1,7.462,12.27,12.437,12.437,0,0,1-3.477,9.51,87.485,87.485,0,0,1-7.137,7.04c-5.284,4.67-4.713,4.78-5.019,10.33-0.063,1.15-.138,2.31-0.105,3.46a1.019,1.019,0,0,1-1.242,1.21C299.289,5634.71,297.868,5634.73,296.446,5634.73Zm6.4,15.03a6.018,6.018,0,0,1-6.018,6.26,6.314,6.314,0,0,1-6.219-6.16A6.119,6.119,0,0,1,302.849,5649.76Z" transform="translate(-215 -5587)"/>
</svg>
