<?xml version="1.0" encoding="utf-8"?>
<!-- Generator: Adobe Illustrator 23.0.1, SVG Export Plug-In . SVG Version: 6.00 Build 0)  -->
<svg version="1.1" id="Layer_1" xmlns="http://www.w3.org/2000/svg" xmlns:xlink="http://www.w3.org/1999/xlink" x="0px" y="0px"
	 viewBox="0 0 168.1 168.1" style="enable-background:new 0 0 168.1 168.1;" xml:space="preserve">
<style type="text/css">
	.st0{fill-rule:evenodd;clip-rule:evenodd;fill:#4C98D6;}
	.st1{fill-rule:evenodd;clip-rule:evenodd;fill:#1958AF;}
	.st2{fill:#4C98D6;}
</style>
<g>
	<path class="st0" d="M76.2,73.3H44.4c-1.3,0-2.4,0.8-2.8,2.1l-6.1,21.2l42.8,4.7l3.4-16.1C79.6,81.4,77.7,77.4,76.2,73.3z"/>
	<path class="st0" d="M116.2,105.4l12.9,1.4l-3.8-13.3c-0.5,0.8-1,1.5-1.5,2.2C121.1,99.4,118.5,102.7,116.2,105.4z"/>
	<path class="st0" d="M88.3,95.6l-1.4,6.6l7,0.8c-1.7-2.2-3.6-4.6-5.5-7.2C88.4,95.7,88.4,95.6,88.3,95.6z"/>
	<path class="st0" d="M27.3,125.2c-0.3,0.9-0.1,1.8,0.5,2.5s1.4,1.1,2.3,1.1h42.6l4-19.1L33.1,105L27.3,125.2z"/>
	<path class="st0" d="M131.7,115.8l-46.5-5.1l-3.8,18.1h50.2l0,0c1.6,0,2.9-1.3,2.9-2.9c0-0.3-0.1-0.7-0.2-1L131.7,115.8z"/>
</g>
<path class="st1" d="M106.1,30c-15.7,0-28.4,12.8-28.4,28.5c0,12,7.8,25.5,14.3,34.7c5.2,7.3,10.3,13.1,12.9,15.8
	c0.3,0.3,0.7,0.5,1.2,0.5c0.4,0,0.9-0.2,1.2-0.5c2.6-2.8,7.8-8.6,13-15.9c6.5-9.2,14.3-22.7,14.3-34.7C134.5,42.8,121.7,30,106.1,30
	z M106.1,75.5c-9.6,0-17.4-7.8-17.4-17.4s7.8-17.4,17.4-17.4s17.4,7.8,17.4,17.4C123.4,67.7,115.6,75.5,106.1,75.5z"/>
<g>
	<path class="st2" d="M84.1,168.1L84.1,168.1c-2.4,0-4.7-0.1-7.1-0.3c-1.4-0.1-2.5-1.4-2.4-2.8c0.1-1.4,1.4-2.5,2.8-2.4
		c2.2,0.2,4.4,0.3,6.6,0.3l0,0c1.4,0,2.6,1.2,2.6,2.6C86.7,166.9,85.5,168.1,84.1,168.1z M95.5,167.3c-1.3,0-2.4-0.9-2.6-2.2
		c-0.2-1.4,0.8-2.7,2.2-2.9c2.2-0.3,4.4-0.7,6.5-1.2c1.4-0.3,2.8,0.6,3.1,1.9c0.3,1.4-0.6,2.8-1.9,3.1c-2.3,0.5-4.6,1-7,1.3
		C95.7,167.3,95.6,167.3,95.5,167.3z M66,166.1c-0.2,0-0.4,0-0.6-0.1c-2.3-0.5-4.6-1.1-6.8-1.9c-1.4-0.4-2.1-1.9-1.7-3.2
		c0.4-1.4,1.9-2.1,3.2-1.7c2.1,0.7,4.3,1.3,6.4,1.7c1.4,0.3,2.3,1.7,2,3.1C68.2,165.3,67.2,166.1,66,166.1z M113.1,162.8
		c-1,0-2-0.6-2.4-1.7c-0.5-1.3,0.2-2.8,1.5-3.3c2.1-0.8,4.1-1.7,6.1-2.6c1.3-0.6,2.8-0.1,3.5,1.2c0.6,1.3,0.1,2.8-1.2,3.5
		c-2.1,1-4.3,2-6.5,2.8C113.8,162.7,113.5,162.8,113.1,162.8z M48.7,160.1c-0.4,0-0.8-0.1-1.1-0.3c-2.1-1-4.2-2.1-6.2-3.3
		c-1.2-0.7-1.6-2.3-0.9-3.5c0.7-1.2,2.3-1.6,3.5-0.9c1.9,1.1,3.9,2.2,5.9,3.1c1.3,0.6,1.8,2.2,1.2,3.5
		C50.6,159.5,49.7,160.1,48.7,160.1z M129.3,154.4c-0.8,0-1.7-0.4-2.2-1.1c-0.8-1.2-0.5-2.8,0.7-3.6c1.8-1.2,3.6-2.5,5.4-3.9
		c1.1-0.9,2.7-0.7,3.6,0.4c0.9,1.1,0.7,2.7-0.4,3.6c-1.8,1.5-3.8,2.9-5.7,4.2C130.3,154.2,129.8,154.4,129.3,154.4z M33.3,150.4
		c-0.6,0-1.1-0.2-1.6-0.6c-1.8-1.5-3.6-3-5.3-4.6c-1-1-1.1-2.6-0.1-3.7c1-1,2.6-1.1,3.7-0.1c1.6,1.5,3.3,3,5,4.4
		c1.1,0.9,1.3,2.5,0.4,3.6C34.8,150,34.1,150.4,33.3,150.4z M143.3,142.6c-0.6,0-1.3-0.2-1.8-0.7c-1-1-1.1-2.6-0.1-3.7
		c1.5-1.6,3-3.3,4.4-5c0.9-1.1,2.5-1.3,3.6-0.4c1.1,0.9,1.3,2.5,0.4,3.6c-1.5,1.8-3,3.6-4.6,5.3
		C144.6,142.3,143.9,142.6,143.3,142.6z M20.4,137.5c-0.8,0-1.5-0.3-2-1c-1.5-1.8-2.9-3.8-4.2-5.7c-0.8-1.2-0.5-2.8,0.7-3.6
		c1.2-0.8,2.8-0.5,3.6,0.7c1.2,1.8,2.5,3.6,3.9,5.4c0.9,1.1,0.7,2.7-0.4,3.6C21.5,137.3,21,137.5,20.4,137.5z M154.2,128
		c-0.4,0-0.9-0.1-1.3-0.4c-1.2-0.7-1.6-2.3-0.9-3.5c1.1-1.9,2.2-3.9,3.1-5.9c0.6-1.3,2.2-1.8,3.5-1.2c1.3,0.6,1.8,2.2,1.2,3.5
		c-1,2.1-2.1,4.2-3.3,6.2C156,127.6,155.1,128,154.2,128z M10.7,122.1c-1,0-1.9-0.5-2.3-1.5c-1-2.1-2-4.3-2.8-6.5
		c-0.5-1.3,0.2-2.8,1.5-3.3s2.8,0.2,3.3,1.5c0.8,2.1,1.7,4.1,2.6,6.1c0.6,1.3,0.1,2.8-1.2,3.5C11.4,122,11,122.1,10.7,122.1z
		 M161.7,111.4c-0.3,0-0.5,0-0.8-0.1c-1.4-0.4-2.1-1.9-1.7-3.2c0.7-2.1,1.3-4.3,1.7-6.4c0.3-1.4,1.7-2.3,3.1-1.9
		c1.4,0.3,2.3,1.7,1.9,3.1c-0.5,2.3-1.1,4.6-1.9,6.8C163.8,110.7,162.8,111.4,161.7,111.4z M4.6,104.9c-1.2,0-2.2-0.8-2.5-2
		c-0.5-2.3-1-4.6-1.3-7C0.6,94.5,1.6,93.2,3,93s2.7,0.8,2.9,2.2c0.3,2.2,0.7,4.4,1.2,6.5c0.3,1.4-0.6,2.8-1.9,3.1
		C5,104.8,4.8,104.9,4.6,104.9z M165.2,93.5c-0.1,0-0.1,0-0.2,0c-1.4-0.1-2.5-1.4-2.4-2.8c0.2-2.2,0.3-4.4,0.3-6.6v-0.2
		c0-1.4,1.1-2.6,2.6-2.6l0,0c1.4,0,2.6,1.2,2.6,2.6v0.2c0,2.4-0.1,4.7-0.3,7.1C167.7,92.5,166.6,93.5,165.2,93.5z M2.6,86.7
		c-1.4,0-2.6-1.2-2.6-2.6V84c0-2.3,0.1-4.7,0.3-7c0.1-1.4,1.4-2.5,2.8-2.4s2.5,1.4,2.4,2.8c-0.2,2.2-0.3,4.4-0.3,6.5V84
		C5.2,85.6,4,86.7,2.6,86.7z M164.7,75.1c-1.3,0-2.4-0.9-2.6-2.2c-0.3-2.2-0.7-4.4-1.2-6.5c-0.3-1.4,0.5-2.8,1.9-3.1
		s2.8,0.5,3.1,1.9c0.5,2.3,1,4.6,1.3,7c0.2,1.4-0.8,2.7-2.2,2.9C164.9,75.1,164.8,75.1,164.7,75.1z M4.6,68.6c-0.2,0-0.4,0-0.6-0.1
		c-1.4-0.3-2.3-1.7-2-3.1c0.5-2.3,1.1-4.6,1.8-6.8c0.4-1.4,1.9-2.1,3.2-1.7c1.4,0.4,2.1,1.9,1.7,3.2C8,62.2,7.5,64.4,7,66.5
		C6.8,67.8,5.8,68.6,4.6,68.6z M160.1,57.4c-1,0-2-0.6-2.4-1.7c-0.8-2.1-1.7-4.1-2.6-6.1c-0.6-1.3-0.1-2.8,1.2-3.5
		c1.3-0.6,2.8-0.1,3.5,1.2c1,2.1,2,4.3,2.8,6.5c0.5,1.3-0.2,2.8-1.5,3.3C160.7,57.4,160.4,57.4,160.1,57.4z M10.6,51.4
		c-0.4,0-0.8-0.1-1.1-0.3c-1.3-0.6-1.8-2.2-1.2-3.5c1-2.1,2.1-4.2,3.3-6.2c0.7-1.2,2.3-1.6,3.5-0.9c1.2,0.7,1.6,2.3,0.9,3.5
		c-1.1,1.9-2.2,3.9-3.1,5.9C12.5,50.8,11.6,51.4,10.6,51.4z M151.7,41.2c-0.8,0-1.6-0.4-2.1-1.1c-1.2-1.8-2.6-3.6-3.9-5.3
		c-0.9-1.1-0.7-2.7,0.4-3.6c1.1-0.9,2.7-0.7,3.6,0.4c1.5,1.8,2.9,3.7,4.2,5.7c0.8,1.2,0.5,2.8-0.7,3.6
		C152.7,41.1,152.2,41.2,151.7,41.2z M20.3,35.9c-0.6,0-1.1-0.2-1.6-0.6c-1.1-0.9-1.3-2.5-0.4-3.6c1.5-1.8,3-3.6,4.6-5.3
		c1-1,2.6-1.1,3.7-0.1c1,1,1.1,2.6,0.1,3.7c-1.5,1.6-3,3.3-4.3,5C21.8,35.6,21,35.9,20.3,35.9z M139.9,27.3c-0.6,0-1.3-0.2-1.8-0.7
		c-1.6-1.5-3.3-3-5-4.3c-1.1-0.9-1.3-2.5-0.4-3.6c0.9-1.1,2.5-1.3,3.6-0.4c1.8,1.5,3.6,3,5.3,4.6c1,1,1.1,2.6,0.1,3.7
		C141.3,27.1,140.6,27.3,139.9,27.3z M33.2,23c-0.8,0-1.5-0.3-2-1c-0.9-1.1-0.7-2.7,0.4-3.6c1.8-1.5,3.7-2.9,5.7-4.2
		c1.2-0.8,2.8-0.5,3.6,0.7s0.5,2.8-0.7,3.6c-1.8,1.2-3.6,2.5-5.3,3.9C34.3,22.8,33.7,23,33.2,23z M125.3,16.4
		c-0.4,0-0.9-0.1-1.3-0.4c-1.9-1.1-3.9-2.2-5.9-3.1c-1.3-0.6-1.8-2.2-1.2-3.5c0.6-1.3,2.2-1.8,3.5-1.2c2.1,1,4.2,2.1,6.2,3.3
		c1.2,0.7,1.6,2.3,0.9,3.5C127.1,15.9,126.2,16.4,125.3,16.4z M48.6,13.3c-1,0-1.9-0.5-2.3-1.5c-0.6-1.3-0.1-2.8,1.2-3.5
		c2.1-1,4.3-2,6.5-2.8C55.3,5,56.8,5.7,57.3,7s-0.2,2.8-1.5,3.3c-2.1,0.8-4.1,1.7-6.1,2.6C49.3,13.2,49,13.3,48.6,13.3z M108.6,9
		c-0.3,0-0.5,0-0.8-0.1c-2.1-0.7-4.3-1.2-6.4-1.7c-1.4-0.3-2.3-1.7-2-3.1s1.7-2.3,3.1-2c2.3,0.5,4.6,1.1,6.8,1.8
		c1.4,0.4,2.1,1.9,1.7,3.2C110.8,8.2,109.7,9,108.6,9z M65.8,7.2c-1.2,0-2.2-0.8-2.5-2c-0.3-1.4,0.6-2.8,1.9-3.1
		c2.3-0.5,4.6-1,7-1.3c1.4-0.2,2.7,0.8,2.9,2.2c0.2,1.4-0.8,2.7-2.2,2.9c-2.2,0.3-4.4,0.7-6.5,1.2C66.2,7.2,66,7.2,65.8,7.2z
		 M90.8,5.4c-0.1,0-0.1,0-0.2,0c-2.1-0.2-4.3-0.3-6.5-0.3H84l0,0c-1.4,0-2.6-1.2-2.6-2.6s1.2-2.6,2.6-2.6L84,0
		c2.3,0,4.6,0.1,6.9,0.3c1.4,0.1,2.5,1.4,2.4,2.8C93.2,4.4,92.1,5.4,90.8,5.4z"/>
</g>
</svg>
