<?xml version="1.0" encoding="utf-8"?>
<!-- Generator: Adobe Illustrator 23.0.1, SVG Export Plug-In . SVG Version: 6.00 Build 0)  -->
<svg version="1.1" id="Layer_1" xmlns="http://www.w3.org/2000/svg" xmlns:xlink="http://www.w3.org/1999/xlink" x="0px" y="0px"
	 viewBox="0 0 108.8 103.8" style="enable-background:new 0 0 108.8 103.8;" xml:space="preserve">
<style type="text/css">
	.st0{fill:#0B193C;}
	.st1{fill:#1958AF;}
	.st2{fill:#4C98D6;}
</style>
<path class="st0" d="M94.7,70.3c-7.2,0-13,5.9-13,13s5.9,13,13,13s13-5.9,13-13S101.9,70.3,94.7,70.3z M92.1,89.3V77.5l7.8,5.9
	L92.1,89.3z"/>
<g>
	<path class="st1" d="M57.2,4.9c3.1,0.3,6.3,0.4,9.3,1c25.1,5.4,41.1,29.5,36.4,54.9c-0.5,2.9-1.4,5.6-2.4,8.3
		c1.5,0.7,2.9,1.7,4.1,2.8c3.7-8.8,5-18.6,3.3-28.3c-3.4-19.2-14.4-32.5-32.4-40C69.7,1.1,63.5,0,57.1,0c-1.9,0-3.1,1.4-2.6,3.1
		C54.9,4.4,56,4.8,57.2,4.9z"/>
	<path class="st1" d="M80.9,92.3c-8.9,5.4-19.6,7.8-30.4,6.2c-20.4-3-36.1-18.1-39.9-38.3c-0.5-2.7-0.6-5.5-0.9-8.4
		c2.1,0,3.7,0,5.7,0c-2.6-4.5-5.1-8.8-7.6-13.2C5.1,43.1,2.6,47.4,0,51.8c1.7,0,3.2,0,4.9,0c0,0.6,0,1.1,0.1,1.5
		c0.5,3.8,0.7,7.7,1.6,11.4c8,30.6,40.3,46.9,69.7,35.3c2.8-1.1,5.5-2.5,8-4.1C83,94.9,81.8,93.7,80.9,92.3z"/>
</g>
<path class="st2" d="M89.7,69.1c2.7-5.1,4.2-11,4.2-17.2c0-20.5-16.7-37.1-37.3-37.1c-20.2,0-37,16.7-36.9,37
	C19.8,72.4,36.4,89,56.8,89c8.4,0,16.1-2.8,22.3-7.5C80.1,75.7,84.2,70.9,89.7,69.1z M89,49.4c1.3,0,2.5,1.1,2.5,2.5
	s-1.1,2.5-2.4,2.6c-1.3,0-2.5-1.1-2.6-2.4C86.4,50.6,87.6,49.4,89,49.4z M24.6,54.4c-1.3,0-2.5-1.2-2.4-2.6c0-1.4,1.2-2.5,2.5-2.5
	s2.5,1.2,2.5,2.5C27.2,53.2,26,54.5,24.6,54.4z M56.7,17.2c1.4-0.1,2.6,1.1,2.6,2.5c0,1.3-1.1,2.5-2.5,2.5c-1.3,0-2.5-1.1-2.6-2.4
	C54.2,18.5,55.3,17.3,56.7,17.2z M56.9,86.6c-1.4,0-2.5-1.1-2.6-2.4c-0.1-1.4,1.2-2.6,2.5-2.6s2.5,1.2,2.5,2.5
	C59.4,85.4,58.2,86.5,56.9,86.6z M73.5,54.4c-3.7,0-7.3,0-11,0c-0.9,0-1.5,0.2-2.1,0.9c-1.9,2.1-5.1,2.1-7.1,0.1s-1.9-5.2,0.1-7.3
	c0.4-0.4,0.8-1.2,0.8-1.8c0.1-2.7,0-5.4,0-8.1c0-2.8,0-5.5,0-8.3c0-2,1.4-3.2,3.1-2.8c1.3,0.3,2,1.3,2,3.1c0,5.2,0,10.3,0,15.5
	c0,2.4,1.1,3.5,3.6,3.5c3.6,0,7.2,0,10.9,0c2.1,0,3.4,1.7,2.7,3.4C76,54.1,74.8,54.4,73.5,54.4z"/>
</svg>
