<?xml version="1.0" encoding="utf-8"?>
<!-- Generator: Adobe Illustrator 24.3.0, SVG Export Plug-In . SVG Version: 6.00 Build 0)  -->
<svg version="1.1" id="Layer_1" xmlns="http://www.w3.org/2000/svg" xmlns:xlink="http://www.w3.org/1999/xlink" x="0px" y="0px"
	 viewBox="0 0 98.5 129.1" style="enable-background:new 0 0 98.5 129.1;" xml:space="preserve">
<style type="text/css">
	.st0{fill-rule:evenodd;clip-rule:evenodd;fill:#325FDE;}
	.st1{fill-rule:evenodd;clip-rule:evenodd;fill:#283047;}
</style>
<path id="Path_4318" class="st0" d="M0,50.6C0.2,25.5,16.4,5.9,39.9,1c26.7-5.5,53.7,13.1,57.9,39.9c2.8,15.9-2.4,32.2-14.1,43.4
	C73.4,94.7,63,105,52.6,115.2c-2.2,2.2-4.6,2.4-6.6,0.3c-10.9-10.9-21.9-21.8-32.8-32.8C4.9,74.3,0,62.6,0,50.6L0,50.6z M49.1,72.9
	c12.9,0,23.5-10.4,23.5-23.4S62.2,26,49.2,26c-12.9,0-23.5,10.4-23.5,23.4l0,0C25.7,62.3,36.2,72.7,49.1,72.9z"/>
<path id="Path_4319" class="st1" d="M10.3,122.2h78.3v6.9H10.3V122.2z"/>
</svg>
