<svg xmlns="http://www.w3.org/2000/svg" width="15.91" height="16" viewBox="0 0 15.91 16">
  <defs>
    <style>
      .cls-1 {
        fill: #fff;
        fill-rule: evenodd;
      }
    </style>
  </defs>
  <path class="cls-1" d="M1361.9,12h6.67a4.629,4.629,0,0,1,4.61,4.64v6.72A4.629,4.629,0,0,1,1368.57,28h-6.67a4.623,4.623,0,0,1-4.61-4.641v-6.72A4.623,4.623,0,0,1,1361.9,12Zm-0.16,1.6a2.87,2.87,0,0,0-2.86,2.88v7.04a2.87,2.87,0,0,0,2.86,2.88h6.99a2.87,2.87,0,0,0,2.86-2.88V16.48a2.87,2.87,0,0,0-2.86-2.88h-6.99Zm7.66,1.2a1,1,0,1,1-.99,1A1,1,0,0,1,1369.4,14.8Zm-4.17,1.2a4,4,0,1,1-3.97,4A3.989,3.989,0,0,1,1365.23,16Zm0,1.6a2.4,2.4,0,1,0,2.39,2.4A2.393,2.393,0,0,0,1365.23,17.6Z" transform="translate(-1357.28 -12)"/>
</svg>
