<?xml version="1.0" encoding="utf-8"?>
<!-- Generator: Adobe Illustrator 24.3.0, SVG Export Plug-In . SVG Version: 6.00 Build 0)  -->
<svg version="1.1" id="Layer_1" xmlns="http://www.w3.org/2000/svg" xmlns:xlink="http://www.w3.org/1999/xlink" x="0px" y="0px"
	 viewBox="0 0 396.6 81.7" style="enable-background:new 0 0 396.6 81.7;" xml:space="preserve">
<style type="text/css">
	.st0{fill-rule:evenodd;clip-rule:evenodd;fill:#040E28;}
	.st1{fill-rule:evenodd;clip-rule:evenodd;fill:#325FDE;}
	.st2{fill-rule:evenodd;clip-rule:evenodd;fill:#283047;}
</style>
<path id="Path_4317" class="st0" d="M362.7,67.6h-18V19.4h18c15.2,0,25.6,10.4,25.6,24v0.1C388.4,57,377.9,67.6,362.7,67.6z
	 M379.5,43.5c0-9.4-6.6-16.4-16.8-16.4h-9.5v32.8h9.5c10.1,0,16.8-6.8,16.8-16.3V43.5z M229.3,67.6l-11.9-16.8h-10.6v16.8h-8.5V19.4
	h21.5c6.1,0,10.8,1.8,13.9,4.8c2.7,2.8,4.1,6.5,4,10.4v0.1c0,7.9-4.8,12.7-11.5,14.6l13,18.3L229.3,67.6z M229.2,35.2L229.2,35.2
	c0-5.3-3.7-8.1-10-8.1h-12.3v16.2h12.4C225.3,43.3,229.2,40.1,229.2,35.2L229.2,35.2z M163.7,33l-15.2,22.7h-0.3l-15.1-22.6v34.4
	h-8.3V19.4h9l14.7,22.8l14.7-22.8h9v48.2h-8.5L163.7,33z M88.8,55.9H66l-5,11.6h-8.7L73.6,19h7.9l21.2,48.6h-9L88.8,55.9z
	 M77.4,29.1l-8.3,19.3h16.6L77.4,29.1z M0,19.4h8.5v40.5h25.4v7.7H0V19.4z"/>
<path id="Path_4318" class="st1" d="M259.3,32c0.1-15.9,10.4-28.3,25.3-31.4c16.9-3.5,34,8.3,36.7,25.3c1.8,10.1-1.5,20.4-8.9,27.5
	c-6.5,6.6-13.1,13.1-19.7,19.6c-1.4,1.4-2.9,1.5-4.2,0.2c-6.9-6.9-13.9-13.8-20.8-20.8C262.4,47,259.3,39.6,259.3,32L259.3,32z
	 M290.4,46.1c8.2,0,14.9-6.6,14.9-14.8s-6.6-14.9-14.8-14.9c-8.2,0-14.9,6.6-14.9,14.8l0,0C275.6,39.4,282.2,46,290.4,46.1z"/>
<path id="Path_4319" class="st2" d="M265.8,77.3h49.6v4.4h-49.6V77.3z"/>
<g>
	<path d="M387.2,6.2c-4.3,0-7.8,3.5-7.8,7.8s3.5,7.8,7.8,7.8s7.8-3.5,7.8-7.8S391.5,6.2,387.2,6.2 M387.2,4.6c5.2,0,9.4,4.2,9.4,9.4
		s-4.2,9.4-9.4,9.4s-9.4-4.2-9.4-9.4C377.8,8.9,382,4.6,387.2,4.6z"/>
	<path id="Path_4317-2" d="M383.3,18.6h1.6v-3.2h2l2.2,3.2h1.9l-2.5-3.5c1.3-0.2,2.2-1.4,2.2-2.8l0,0c0-0.7-0.2-1.4-0.8-2
		c-0.7-0.6-1.7-1-2.6-0.9h-4L383.3,18.6L383.3,18.6z M384.9,14v-3.1h2.4c1.2,0,1.9,0.6,1.9,1.5l0,0c0,1-0.7,1.5-1.9,1.5L384.9,14
		L384.9,14z"/>
</g>
</svg>
