<svg xmlns="http://www.w3.org/2000/svg" width="17.5" height="14" viewBox="0 0 17.5 14">
  <defs>
    <style>
      .cls-1 {
        fill: #fff;
        fill-rule: evenodd;
      }
    </style>
  </defs>
  <path id="Forma_1" data-name="Forma 1" class="cls-1" d="M34.93,17.947q0.332,0.237,2,1.417t2.559,1.815l0.415,0.3q0.317,0.234.527,0.378t0.508,0.323a2.955,2.955,0,0,0,.562.268,1.538,1.538,0,0,0,.488.089h0.02a1.536,1.536,0,0,0,.488-0.089,2.949,2.949,0,0,0,.562-0.268q0.3-.18.508-0.323t0.527-.378c0.211-.156.35-0.256,0.415-0.3q0.9-.637,4.57-3.232a4.7,4.7,0,0,0,1.191-1.223,2.661,2.661,0,0,0,.479-1.5,1.54,1.54,0,0,0-.464-1.124,1.5,1.5,0,0,0-1.1-.467H34.812a1.383,1.383,0,0,0-1.157.518,2.031,2.031,0,0,0-.405,1.293,2.348,2.348,0,0,0,.537,1.357A4.889,4.889,0,0,0,34.93,17.947Zm14.843,1.063q-3.2,2.209-4.863,3.432-0.556.417-.9,0.651a5.474,5.474,0,0,1-.923.477,2.764,2.764,0,0,1-1.074.244H41.99a2.764,2.764,0,0,1-1.074-.244,5.488,5.488,0,0,1-.923-0.477q-0.347-.233-0.9-0.651-1.319-.984-4.854-3.431a5.2,5.2,0,0,1-.986-0.865v7.9a1.544,1.544,0,0,0,.459,1.124,1.49,1.49,0,0,0,1.1.468H49.188a1.49,1.49,0,0,0,1.1-.468,1.546,1.546,0,0,0,.459-1.124v-7.9A5.4,5.4,0,0,1,49.773,19.011Z" transform="translate(-33.25 -13.625)"/>
</svg>
