<?xml version="1.0" encoding="utf-8"?>
<!-- Generator: Adobe Illustrator 23.0.1, SVG Export Plug-In . SVG Version: 6.00 Build 0)  -->
<svg version="1.1" id="Layer_1" xmlns="http://www.w3.org/2000/svg" xmlns:xlink="http://www.w3.org/1999/xlink" x="0px" y="0px"
	 viewBox="0 0 362.5 205.9" style="enable-background:new 0 0 362.5 205.9;" xml:space="preserve">
<style type="text/css">
	.st0{fill:#1958AF;}
	.st1{fill:#4C98D6;}
	.st2{fill:#DD3636;}
</style>
<path class="st0" d="M128.8,205.9c-13.5,0-24.6-11-24.9-24.7c-0.3-13.3,10.4-24.6,23.7-25.1c2.8-0.1,5.2-0.9,7.5-2.3
	c8.8-5.5,33.9-27.1,42.7-32.6c1.1-0.7,2.4-1.6,3.5-1.5c1.7,0.2,3.6,0.9,4.8,2.1c1.6,1.7,1.3,4,0.2,6.1c-4.1,7.8-24.4,31.8-28.5,39.6
	c-0.5,1-1,2-1.6,3c-1.7,3-2.6,6-2.4,9.8C154.6,194.3,142.9,206,128.8,205.9z"/>
<path class="st1" d="M361,151.2c-5.4-22.9-14.6-44.1-26.8-62.8c-9.4,0-18.7,0-28.1,0c-13.8,0-27.6,0-41.5,0c-3.8,0-6.5-2.9-6.2-6.6
	c0.1-1,0.5-2.1,1-3c8.2-14.3,16.4-28.7,24.6-43C244.2,7.3,194.2-6,143.4,2.6C76.8,13.8,20.2,64.8,4.7,130.4
	c-2.2,9.3-3.1,18.8-4.7,28.9c7.2,0,13.2-0.3,19.1,0.1c4.7,0.4,6.5-1.4,8-5.8c18.8-55.5,74.5-94.1,134.9-84
	c33.1,5.5,58.5,22.8,75.5,52c6.7,11.5,10.2,24.1,12,37.4c37.6,0,74.8,0,113,0C361.9,156,361.5,153.6,361,151.2z"/>
<g>
	<path class="st2" d="M303.9,83.5c-11,0-22,0-33,0c-3,0-5.2-2.3-5-5.2c0.1-0.8,0.4-1.7,0.8-2.4c9.4-16.5,18.8-33,28.3-49.5
		c1.5-2.6,3-5.2,4.5-7.9c1-1.7,2.4-2.7,4.4-2.7s3.4,1,4.4,2.7c10.9,19.1,21.9,38.3,32.8,57.4c2.1,3.7-0.2,7.6-4.4,7.6
		C325.8,83.5,314.9,83.5,303.9,83.5z M308.7,59.2c0-6.5,0-12.9,0-19.3c-3.2,0-6.4,0-9.6,0c0,6.5,0,12.9,0,19.3
		C302.4,59.2,305.5,59.2,308.7,59.2z M299.1,64.1c0,3.2,0,6.4,0,9.6c3.2,0,6.4,0,9.6,0c0-3.2,0-6.4,0-9.6
		C305.5,64.1,302.4,64.1,299.1,64.1z"/>
</g>
</svg>
