<?xml version="1.0" encoding="utf-8"?>
<!-- Generator: Adobe Illustrator 23.0.1, SVG Export Plug-In . SVG Version: 6.00 Build 0)  -->
<svg version="1.1" id="Layer_1" xmlns="http://www.w3.org/2000/svg" xmlns:xlink="http://www.w3.org/1999/xlink" x="0px" y="0px"
	 viewBox="0 0 140 128" style="enable-background:new 0 0 140 128;" xml:space="preserve">
<style type="text/css">
	.st0{fill:#4C98D6;}
	.st1{fill:#1958AF;}
</style>
<path class="st0" d="M140,85.1c-0.8,2.4-2.6,3.9-4.7,5.2c-17.2,10.9-34.3,22-51.4,32.9c-6.5,4.2-13.8,5.3-21.3,4.7
	c-5.5-0.5-10.5-2.4-15.3-5.1c-5.6-3.2-11.4-6.1-17.7-7.9c0-11.5,0-23,0-34.5c0.3,0,0.5-0.1,0.8-0.1c4.4,0,8.7-0.1,13.1,0
	c5.6,0.1,10.6,2.2,15.2,5.1c4,2.5,8.1,4.5,12.8,5.1c1.5,0.2,3.1,0.3,4.6,0.3c4,0,8-0.1,12,0.1c4.6,0.2,7.2,4.7,5,8.6
	c-1.2,2-3,2.8-5.3,2.8c-5.5,0-11,0-16.5,0c-3.8,0-7.7,0-11.5,0c-2,0-3.2,1.5-2.5,3.1c0.4,1.1,1.3,1.5,2.4,1.5c2.9,0,5.7,0,8.6,0
	c6.5,0,13,0,19.5,0c5.4,0,9.6-3.5,10.5-8.9c0.1-0.5,0.5-1.1,0.9-1.3c10.2-6.1,20.3-12.3,30.5-18.4c3.9-2.3,8.3-0.6,9.8,3.7
	c0.1,0.2,0.2,0.4,0.3,0.6C140,83.3,140,84.2,140,85.1z"/>
<path class="st1" d="M0,73.6c8.3,0,16.6,0,25,0c0,15.9,0,31.7,0,47.8c-0.6,0-1.1,0-1.6,0c-7.2,0-14.5,0-21.7,0
	c-0.5,0-1.1,0.1-1.6,0.1C0,105.5,0,89.5,0,73.6z"/>
<path class="st1" d="M62.4,11.4c1.2,1.3,2.5,2.6,3.8,4c0.9,0.9,1.7,1,2.8,0.3c3.3-2.4,7-3.8,11-4.5c1.2-0.2,1.7-0.9,1.7-2.1
	c0-1.9,0-3.7,0-5.7c2.1,0,4.1,0,6.3,0c0,1.8,0,3.7,0,5.5c0,1.4,0.5,2.1,1.9,2.3c3.9,0.7,7.5,2.2,10.7,4.5c1.1,0.8,2,0.7,2.9-0.3
	c1.2-1.3,2.5-2.6,3.7-3.8c1.5,1.5,3,3,4.5,4.5c-1.2,1.1-2.5,2.4-3.8,3.7c-0.9,0.9-1,1.7-0.3,2.8c2.3,3.3,3.9,7,4.5,11
	c0.2,1.2,0.9,1.7,2.1,1.7c1.9,0,3.7,0,5.7,0c0,2.1,0,4.1,0,6.2c-1.8,0-3.6,0-5.5,0c-1.3,0-2.1,0.5-2.3,1.9
	c-0.7,3.9-2.2,7.4-4.4,10.7c-1,1.5-0.9,1.9,0.3,3.1c1.3,1.3,2.5,2.5,3.8,3.7c-1.5,1.5-3,2.9-4.7,4.5c-1-1.1-2.2-2.5-3.5-3.8
	c-1.2-1.2-1.7-1.3-3.1-0.3c-3.2,2.2-6.6,3.6-10.4,4.3c-2,0.4-2.1,0.6-2.1,2.6c0,1.7,0,3.4,0,5.1c-2.1,0-4.1,0-6.3,0
	c0-1.7,0-3.5,0-5.3s-0.3-2.1-2-2.5c-3.9-0.8-7.5-2.2-10.7-4.5c-1-0.7-1.8-0.7-2.6,0.2c-1.3,1.4-2.7,2.7-4,4.1
	c-1.5-1.5-2.9-2.9-4.6-4.6c1.2-1.2,2.6-2.4,3.8-3.7c1.3-1.3,1.3-1.6,0.3-3.2c-2.1-3.1-3.6-6.5-4.3-10.3c-0.4-1.9-0.7-2.2-2.8-2.2
	c-1.7,0-3.3,0-5.1,0c0-2.1,0-4.1,0-6.2c1.9,0,3.7,0,5.5,0c1.3,0,2-0.5,2.3-1.8c0.7-4,2.2-7.6,4.5-10.9c0.7-1,0.7-1.9-0.3-2.8
	c-1.4-1.3-2.7-2.6-4-3.8C59.4,14.3,60.8,12.9,62.4,11.4z M64.6,38.1c-0.2,11,8.9,20.3,19.9,20.4c10.9,0.1,20.2-8.8,20.4-19.7
	c0.2-11.2-8.7-20.5-19.8-20.7C74.1,17.9,64.8,26.9,64.6,38.1z"/>
<path class="st0" d="M35,33.1c0.2-10.9,3.5-21.9,10.4-31.7c0.8-1.1,1.8-1.7,3.1-1.4c1.1,0.3,1.9,1.1,1.9,2.2c0,0.8-0.3,1.7-0.8,2.4
	c-4.4,6.4-7.3,13.4-8.5,21c-2,12.4,0.1,24.1,6.5,35c0.1,0.2,0.3,0.5,0.4,0.7c0.9,1.6,0.6,3.2-0.8,4c-1.4,0.8-3,0.4-3.8-1.2
	c-1.9-3.7-3.9-7.4-5.4-11.3C35.9,46.8,35,40.5,35,33.1z"/>
<path class="st0" d="M134.9,34.1c-0.4,12-3.7,22.9-10.5,32.7c-0.7,1.1-1.6,1.7-3,1.5c-2-0.3-2.8-2.4-1.7-4.3c1.8-3,3.8-5.9,5.1-9
	c6.8-16.2,5.9-32-2.9-47.3c-0.1-0.2-0.2-0.4-0.4-0.6c-0.9-1.6-0.6-3.2,0.8-4s2.9-0.3,3.8,1.2c3.5,5.6,6,11.7,7.2,18.2
	C134.1,26.3,134.4,30.2,134.9,34.1z"/>
<path class="st0" d="M68.5,38.3c0-9,7.4-16.4,16.4-16.3c9,0,16.3,7.4,16.3,16.4c0,8.9-7.4,16.2-16.3,16.3
	C75.9,54.7,68.5,47.3,68.5,38.3z"/>
</svg>
