<?xml version="1.0" encoding="utf-8"?>
<!-- Generator: Adobe Illustrator 23.0.1, SVG Export Plug-In . SVG Version: 6.00 Build 0)  -->
<svg version="1.1" id="Layer_1" xmlns="http://www.w3.org/2000/svg" xmlns:xlink="http://www.w3.org/1999/xlink" x="0px" y="0px"
	 viewBox="0 0 66.8 49.8" style="enable-background:new 0 0 66.8 49.8;" xml:space="preserve">
<style type="text/css">
	.st0{fill:#ED5909;}
	.st1{fill:#FAC94F;}
</style>
<path class="st0" d="M5.8,31.4c0,3.9,0,7.8,0,11.6c0,0.5-0.1,0.7-0.7,0.7c-0.7,0-1.5,0-2.2,0c-1.6,0-2.9-1.3-2.9-2.9
	C0,34.5,0,28.2,0,22c0-1.6,1.3-2.8,2.9-2.9c0.8,0,1.5,0,2.3,0c0.5,0,0.6,0.2,0.6,0.6C5.8,23.6,5.8,27.5,5.8,31.4z"/>
<path class="st0" d="M66.8,33.3c0,3.5,0,7,0,10.4c0,1.2-0.8,2.2-2,2.5c-1.1,0.3-2.3-0.2-2.8-1.3c-0.2-0.4-0.3-0.9-0.3-1.4
	c0-6.9,0-13.7,0-20.6c0-1.6,1.1-2.7,2.5-2.7c1.5,0,2.6,1.1,2.6,2.8C66.8,26.4,66.8,29.8,66.8,33.3z"/>
<path class="st0" d="M28.8,3.8c-2.6,0-5.2,0-7.8,0c-1,0-1.8-0.7-1.9-1.6c-0.1-1,0.5-1.8,1.4-2.1C20.8,0,21,0,21.3,0
	c5.1,0,10.1,0,15.2,0c1.3,0,2.1,0.8,2.1,1.9c0,1.1-0.8,1.9-2.1,1.9C33.9,3.8,31.4,3.8,28.8,3.8C28.8,3.8,28.8,3.8,28.8,3.8z"/>
<path class="st1" d="M60.2,26.5c0-0.4-0.1-0.6-0.5-0.5c-0.6,0-1.1,0-1.7,0c-0.6,0.1-0.7-0.2-0.6-0.7c0-1.8,0-3.6,0-5.4
	c0-2-1.3-3.2-3.2-3.2c-3.2,0-6.4,0-9.6,0c-0.6,0-0.8-0.1-0.8-0.8c0.1-1.6,0-3.2,0-4.8c0-2-1.2-3.3-3.3-3.3c-2.4,0-4.9,0-7.3,0
	c-0.5,0-0.7-0.1-0.6-0.6c0-0.6,0-1.1,0-1.7C32.5,5,32.3,5,31.9,5c-2,0-4.1,0-6.1,0c-0.5,0-0.6,0.1-0.6,0.6c0,0.5,0,1.1,0,1.6
	c0,0.5-0.1,0.7-0.6,0.7c-2.4,0-4.9,0-7.3,0c-2,0-3.2,1.2-3.2,3.2c0,2.5,0,4.9,0,7.4c0,0.6-0.2,0.7-0.7,0.7c-1.5,0-3,0-4.5,0
	c-0.5,0-0.6,0.1-0.6,0.6c0,7.8,0,15.6,0,23.4c0,0.5,0.2,0.6,0.7,0.6c2.1,0,4.2,0,6.3,0c0.4,0,0.7,0.1,1.1,0.3
	c2.4,1.4,4.8,2.8,7.2,4.2c1.9,1.1,4,1.7,6.3,1.7c4,0,7.9,0,11.9,0c4.2,0,8.3,0,12.5,0c2,0,3.3-1.2,3.3-3.3c0-1.8,0-3.7,0-5.5
	c0-0.4,0.1-0.5,0.5-0.5c0.6,0,1.2,0,1.7,0c0.5,0,0.6-0.1,0.6-0.6C60.2,35.5,60.2,31,60.2,26.5z M36.7,26.6
	c-2.3,4.6-4.6,9.2-6.9,13.8c-0.4,0.8-0.8,1.5-1.3,2.3c0.1-1.2,0.2-2.3,0.4-3.5c0.2-2.4,0.5-4.8,0.7-7.2c0.1-0.5-0.1-0.6-0.6-0.6
	c-1.5,0-3,0-4.7,0c2.9-5.2,5.7-10.4,8.6-15.5c0,0,0.1,0,0.1,0c-0.3,3.1-0.5,6.3-0.8,9.4c0,0.5,0.1,0.6,0.6,0.6c1.1,0,2.3,0,3.4,0
	C36.9,25.9,37,26,36.7,26.6z M48.9,36.7c0-0.2,0.1-0.4,0.2-0.5c0.3-0.3,0.7-0.3,0.9,0c0.1,0.1,0.2,0.3,0.2,0.5c0,0,0,0,0,0
	c0,0.6,0,1.3,0,1.9c0,0.2,0,0.4,0,0.7c0,0.6,0,1.2,0,1.7c0,0.3,0,0.6,0,0.9c0,0.3-0.3,0.6-0.6,0.7c-0.4,0-0.7-0.2-0.7-0.6
	c0,0,0-0.1,0-0.1c0-0.8,0-1.7,0-2.5c0-0.3,0-0.6,0-0.9C48.9,37.9,48.9,37.3,48.9,36.7z M54.8,42.4C54.8,42.4,54.8,42.4,54.8,42.4
	c0,0.1,0,0.2,0,0.2c0,0.4-0.1,0.8-0.3,1.2c-0.3,0.8-0.7,1.5-1.3,2.1c-0.5,0.5-1.2,0.9-1.9,1.1c-0.4,0.1-0.9,0.2-1.3,0.3
	c0,0-0.1,0-0.1,0c-0.1,0-0.3,0-0.4,0c0,0-0.1,0-0.1,0c-0.4,0-0.9-0.1-1.3-0.3c-0.6-0.2-1.2-0.5-1.7-0.9c-0.6-0.5-1-1-1.3-1.7
	c-0.2-0.4-0.3-0.8-0.4-1.3c-0.1-0.4-0.1-0.8-0.1-1.2c0-0.7,0.2-1.3,0.4-1.9c0.2-0.5,0.6-1,1-1.5c0.3-0.3,0.6-0.6,0.9-0.8
	c0.2-0.1,0.5-0.2,0.7,0c0.3,0.2,0.5,0.7,0.1,1.1c-0.1,0.1-0.1,0.1-0.2,0.1c-0.7,0.5-1.2,1.1-1.5,1.9c-0.1,0.4-0.2,0.8-0.2,1.1
	c0,0.7,0.1,1.3,0.4,1.9c0.2,0.4,0.4,0.7,0.7,1c0.5,0.5,1.2,0.9,1.9,1c0.3,0.1,0.6,0.1,0.9,0.1c1,0,1.8-0.4,2.5-1
	c0.6-0.5,0.9-1.2,1.1-1.9c0.1-0.3,0.1-0.6,0.1-0.9c0-0.4,0-0.8-0.2-1.2c-0.2-0.5-0.4-0.9-0.8-1.3c-0.2-0.2-0.5-0.5-0.7-0.6
	c-0.1-0.1-0.2-0.2-0.3-0.3c-0.2-0.3-0.1-0.7,0.3-0.9c0.2-0.1,0.5-0.1,0.7,0c0.5,0.3,0.9,0.6,1.2,1.1c0.5,0.6,0.8,1.3,1,2.1
	c0.1,0.3,0.1,0.6,0.1,1c0,0,0,0,0,0C54.8,42.1,54.8,42.2,54.8,42.4z"/>
</svg>
