<?xml version="1.0" encoding="utf-8"?>
<!-- Generator: Adobe Illustrator 23.0.1, SVG Export Plug-In . SVG Version: 6.00 Build 0)  -->
<svg version="1.1" id="Layer_1" xmlns="http://www.w3.org/2000/svg" xmlns:xlink="http://www.w3.org/1999/xlink" x="0px" y="0px"
	 viewBox="0 0 104.2 87.4" style="enable-background:new 0 0 104.2 87.4;" xml:space="preserve">
<style type="text/css">
	.st0{fill:#4C98D6;}
	.st1{fill:#1958AF;}
</style>
<path class="st0" d="M68.8,75.3c0,2.5,0,4.9,0,7.3c0,0.6,0.3,0.7,0.8,0.7c1.5,0,3,0,4.5,0c2.2,0.1,4,1.9,3.9,4.1
	c-17,0-34.1,0-51.1,0c0-2.2,1.7-4,3.9-4.1c1.2-0.1,2.4-0.1,3.6,0c1,0.1,1.2-0.3,1.2-1.2c-0.1-1.8-0.1-3.7,0-5.5
	c0-0.9-0.2-1.3-1.2-1.2c-9.5,0-19,0-28.4,0c-0.7,0-1.4,0-2.1,0c-2.4,0-3.8-1.4-3.8-3.8c0-9.4,0-18.8,0-28.2c0-13,0-26.1,0-39.1
	C0,1.6,1.6,0,4.2,0c32,0.1,63.9,0,95.8,0c2.8,0,4.1,1.3,4.1,4.2c0,22.4,0,44.8,0,67.1c0,2.7-1.3,4-4,4c-10,0-19.9,0-29.9,0
	C69.9,75.3,69.4,75.3,68.8,75.3z M96.7,7.6c-29.8,0-59.4,0-89.1,0c0,17.5,0,35,0,52.5c29.7,0,59.4,0,89.1,0
	C96.7,42.6,96.7,25.1,96.7,7.6z M55.9,68.4c0-2.1-1.7-3.9-3.8-3.9s-3.8,1.7-3.8,3.8c0,2.1,1.7,3.9,3.8,3.8
	C54.2,72.1,55.9,70.4,55.9,68.4z"/>
<path class="st1" d="M16.8,46.3c-2.2-2.5-3.5-5.4-3.9-8.5c-0.9-7.5,1.9-13.4,8.2-17.6c2-1.4,4.3-2.1,6.7-2.5c0.7-0.1,1,0.1,1,0.9
	c0,2.5,0,5.1,0,7.6c0,0.6-0.2,0.8-0.8,1C22.8,29,20.7,34,23,39c0.1,0.3,0.2,0.9,0,1.1C21,42.2,19,44.2,16.8,46.3z"/>
<path class="st1" d="M43.7,46.4c-2.2-2.2-4.2-4.2-6.3-6.3c-0.2-0.2-0.1-0.8,0.1-1.1c2-3.9,0.8-8.5-3-10.9c-0.3-0.2-0.6-0.4-0.9-0.5
	c-1.6-0.2-1.8-1.2-1.8-2.6c0.1-2.2,0-4.3,0-6.5c0-0.8,0.3-1,1-0.8c8,1.3,14.2,7.8,14.9,15.9C48.2,38.3,46.8,42.6,43.7,46.4z"/>
<path class="st1" d="M91.5,31.5c0,4.1,0,8.2,0,12.3c0,1.1-0.3,1.4-1.4,1.3c-2.3-0.1-4.6,0-6.9,0c-0.7,0-1-0.2-1-1c0-8.5,0-17,0-25.5
	c0-0.7,0.2-1,0.9-1c2.5,0,4.9,0,7.4,0c0.8,0,0.9,0.4,0.9,1.1C91.5,23,91.5,27.2,91.5,31.5z"/>
<path class="st1" d="M68.7,34c0-3.4,0-6.8,0-10.1c0-0.8,0.2-1.2,1.1-1.2c2.3,0.1,4.6,0.1,6.9,0c0.8,0,1.1,0.3,1.1,1.1
	c0,6.8,0,13.6,0,20.4c0,0.7-0.2,0.9-0.9,0.9c-2.4,0-4.8,0-7.2,0c-0.7,0-1-0.3-1-1C68.7,40.7,68.7,37.4,68.7,34L68.7,34z"/>
<path class="st1" d="M19,48.6c2.1-2.1,4.2-4.2,6.3-6.2c0.2-0.2,0.7-0.2,1-0.1c2.6,1.3,5.3,1.3,7.9,0c0.3-0.1,0.8-0.2,1,0
	c2.1,2,4.2,4.1,6.3,6.2C35.8,53.6,25.9,54.3,19,48.6z"/>
<path class="st1" d="M64.1,36.9c0,2.4,0,4.8,0,7.2c0,0.8-0.2,1.1-1,1c-2.3,0-4.7,0-7,0c-0.8,0-1.1-0.3-1.1-1.1c0-4.8,0-9.5,0-14.3
	c0-0.8,0.3-1.2,1.1-1.2c2.3,0.1,4.6,0.1,6.9,0c0.8,0,1.1,0.3,1.1,1.1C64.1,32,64.1,34.4,64.1,36.9L64.1,36.9z"/>
<path class="st1" d="M87,52.6c-1.3,0-2.5,0-3.8,0c-0.7,0-0.9-0.2-0.9-0.9c-0.1-3-0.1-3,2.8-3c1.8,0,3.5,0,5.3,0
	c0.8,0,1.2,0.3,1.1,1.1c0,0.6-0.1,1.2,0,1.8c0.1,0.9-0.3,1.1-1.1,1C89.3,52.6,88.2,52.6,87,52.6z"/>
<path class="st1" d="M59.6,52.6c-1.2,0-2.4,0-3.5,0c-0.7,0-1-0.3-1-1c0-3.4-0.5-2.9,2.8-2.9c1.7,0,3.4,0,5.1,0
	c0.8,0,1.2,0.2,1.1,1.1c-0.1,3.4,0.5,2.7-2.8,2.8C60.8,52.7,60.2,52.6,59.6,52.6L59.6,52.6z"/>
<path class="st1" d="M73.2,52.6c-1.2,0-2.4,0-3.6,0c-0.6,0-0.9-0.2-0.9-0.9s0-1.4,0-2.1c0-0.8,0.3-1,1-1c2.4,0,4.7,0,7.1,0
	c0.7,0,1,0.2,1,1c0.1,2.9,0.1,2.9-2.8,2.9C74.4,52.6,73.8,52.6,73.2,52.6z"/>
</svg>
