<?xml version="1.0" encoding="utf-8"?>
<!-- Generator: Adobe Illustrator 23.0.1, SVG Export Plug-In . SVG Version: 6.00 Build 0)  -->
<svg version="1.1" id="Layer_1" xmlns="http://www.w3.org/2000/svg" xmlns:xlink="http://www.w3.org/1999/xlink" x="0px" y="0px"
	 viewBox="0 0 73.9 68.4" style="enable-background:new 0 0 73.9 68.4;" xml:space="preserve">
<style type="text/css">
	.st0{fill:#ED5909;}
	.st1{fill:#FAC94F;}
</style>
<path class="st0" d="M64.7,42.8c0-0.3,0-0.5-0.1-0.9c-0.3,0.2-0.5,0.4-0.7,0.5c-2.1,1.4-4.1,2.9-6.2,4.3c-1.4,0.9-2.8,0.8-4.2,0
	c-4.8-2.7-8.9-6.1-12.3-10.4c-0.4-0.5-0.8-0.7-1.5-0.7c-8.6,0-17.3,0-25.9,0c-0.3,0-0.6,0-1,0c0.1-0.4,0.2-0.6,0.3-0.8
	c1.6-3.8,3.2-7.7,4.8-11.5c0.5-1.2,1.3-1.7,2.5-1.7c4.5,0,9,0,13.5,0c0.3,0,0.6,0,0.9,0c0-1.8,0-3.5,0-5.2c-0.4,0-0.7,0-0.9,0
	c-4.6,0-9.1,0-13.7,0c-3.3,0-5.7,1.6-7,4.7c-1.2,2.7-2.3,5.5-3.4,8.2c-0.1,0.3-0.2,0.5-0.4,0.8c-1.9-1-3.9-0.7-5.7-0.5
	c-2.2,0.1-3.7,2-3.6,4.1c0.1,2.1,1.9,3.8,4.1,3.8c0.5,0,1.1,0,1.9,0c-1.5,1.5-2.2,3.2-2.2,5.1c0,7.5,0,15.1,0,22.6
	c0,2,1.3,3.3,3.2,3.3c2.4,0,4.8,0,7.2,0c2,0,3.2-1.3,3.3-3.2c0-1.1,0-2.2,0-3.3c11.2,0,22.4,0,33.6,0c0,1.1,0,2.2,0,3.3
	c0,2,1.3,3.3,3.3,3.3c2.4,0,4.7,0,7.1,0c2,0,3.3-1.3,3.3-3.3C64.7,57.7,64.7,50.2,64.7,42.8z M14.6,51.1c-2.6,0-4.7-2.1-4.7-4.7
	c0-2.6,2.1-4.8,4.8-4.8c2.6,0,4.7,2.1,4.7,4.7C19.4,49,17.3,51.2,14.6,51.1z M43.7,56.3c-0.3,0-0.7,0-1,0c-2.8,0-5.7,0-8.5,0
	c-2.9,0-5.9,0-8.8,0c-0.3,0-0.6,0-0.8-0.1c-0.6-0.1-1-0.6-0.9-1.2c0-0.6,0.4-1,1-1.2c0.2-0.1,0.5,0,0.7,0c6,0,11.9,0,17.9,0
	c0.1,0,0.3,0,0.4,0c0.8,0.1,1.3,0.6,1.3,1.2C44.9,55.8,44.4,56.3,43.7,56.3z"/>
<path class="st1" d="M73.9,13.3c-0.1,2.8-0.1,5.6-0.4,8.4c-0.6,5-2.7,9.4-5.8,13.3c-3.1,3.8-6.7,6.9-11,9.3
	c-0.6,0.3-1.1,0.5-1.8,0.2c-7.3-4.2-13-9.7-16-17.7c-1-2.6-1.5-5.4-1.5-8.2c0-3.8,0-7.6,0-11.4c0-1.1,0.4-1.6,1.5-1.7
	c5.3-0.4,10.2-2,14.8-4.7c0.1-0.1,0.2-0.1,0.3-0.2c1-0.9,2-0.8,3.1,0c3.1,2,6.5,3.3,10.1,4.1c1.6,0.4,3.3,0.6,5,0.8
	c1.1,0.1,1.5,0.5,1.5,1.6c0,2.1,0,4.1,0,6.2C73.8,13.3,73.8,13.3,73.9,13.3z M52.8,23.7c-1.4-1.4-2.6-2.7-4-4
	c-0.3-0.3-0.6-0.6-1-0.7c-0.8-0.4-1.8,0-2.3,0.7c-0.6,0.8-0.5,1.8,0.3,2.6c1.7,1.8,3.5,3.5,5.2,5.2c1.3,1.3,2.3,1.3,3.5,0
	c3.5-3.5,7.1-7.1,10.6-10.6c0.2-0.2,0.4-0.3,0.5-0.5c0.6-0.8,0.5-1.9-0.2-2.6c-0.7-0.7-1.8-0.7-2.6-0.1c-0.2,0.2-0.4,0.4-0.7,0.6
	C59,17.4,55.9,20.5,52.8,23.7z"/>
</svg>
