<?xml version="1.0" encoding="utf-8"?>
<!-- Generator: Adobe Illustrator 23.0.1, SVG Export Plug-In . SVG Version: 6.00 Build 0)  -->
<svg version="1.1" id="Layer_1" xmlns="http://www.w3.org/2000/svg" xmlns:xlink="http://www.w3.org/1999/xlink" x="0px" y="0px"
	 viewBox="0 0 88.2 69.5" style="enable-background:new 0 0 88.2 69.5;" xml:space="preserve">
<style type="text/css">
	.st0{fill:#ED5909;}
	.st1{fill:#FAC94F;}
</style>
<path class="st0" d="M6.6,20.8c3.9,2.7,7.7,5.3,11.5,7.9c-0.3,0.5-0.5,0.9-0.7,1.4c-5,10.2-4.8,20.3,1.1,30.1
	c0.3,0.5,0.6,0.7,1.2,0.7c16.2,0,32.4,0,48.6,0c0.5,0,0.8-0.2,1.1-0.6c3.4-5.5,5.1-11.4,4.7-17.9C74,38,72.8,33.9,70.7,30
	c-0.2-0.4-0.4-0.8-0.7-1.3c3.8-2.6,7.6-5.2,11.5-7.9c2.3,3.7,4,7.5,5.1,11.5C90,45.1,87.9,57,81,68.2c-0.6,1-1.2,1.3-2.4,1.3
	c-23.2,0-46.3,0-69.5,0c-0.4,0-0.7,0-1.1,0C-2.1,53.6-2.7,37.4,6.6,20.8z M73.7,28.6c0.6,1.4,1.1,2.6,1.6,3.9
	c2.1-0.9,4.1-1.7,6.1-2.5c-0.6-1.4-1.1-2.6-1.6-3.9C77.7,27,75.8,27.8,73.7,28.6z M73.6,57.8c2.1,0.9,4.1,1.7,6.1,2.5
	c0.5-1.3,1.1-2.6,1.6-3.9c-2.1-0.9-4.1-1.7-6.1-2.5C74.7,55.2,74.2,56.5,73.6,57.8z M6.9,30.2C9,31.1,11,31.9,13,32.8
	c0.6-1.3,1.1-2.6,1.6-3.9c-2.1-0.9-4.1-1.7-6.1-2.5C7.9,27.7,7.4,28.9,6.9,30.2z M6.7,56.4c0.6,1.4,1.1,2.6,1.6,3.9
	c2.1-0.9,4.1-1.7,6.1-2.5c-0.6-1.4-1.1-2.6-1.6-3.9C10.7,54.8,8.8,55.6,6.7,56.4z M11.2,41.2c-2.2,0-4.4,0-6.5,0c0,1.4,0,2.7,0,4.1
	c2.2,0,4.4,0,6.5,0C11.2,43.9,11.2,42.6,11.2,41.2z M77.1,41.1c0,1.4,0,2.7,0,4.1c2.2,0,4.3,0,6.5,0c0-1.4,0-2.7,0-4.1
	C81.4,41.1,79.3,41.1,77.1,41.1z"/>
<path class="st0" d="M80.3,19.1c-3.8,2.6-7.6,5.2-11.4,7.8C62.7,18.5,54.5,14,44.1,14c-10.4,0-18.6,4.6-24.8,12.9
	c-3.8-2.6-7.6-5.2-11.4-7.8C24.1-5.2,62.5-7.5,80.3,19.1z M14.8,17c1.5,1.5,3.1,3.1,4.5,4.5c1-1,1.9-1.9,2.8-2.8
	c-1.5-1.5-3-3-4.5-4.5C16.7,15.1,15.8,16,14.8,17z M58.5,13.6c0.9-2.1,1.7-4.1,2.5-6.1c-1.3-0.5-2.6-1.1-3.9-1.6
	C56.3,8,55.5,10,54.6,12C56,12.6,57.2,13.1,58.5,13.6z M27.1,7.7c0.9,2.1,1.7,4.1,2.6,6.1c1.4-0.6,2.6-1.1,3.9-1.6
	c-0.9-2.1-1.7-4.1-2.5-6.1C29.6,6.7,28.4,7.2,27.1,7.7z M68.7,21.2c1.5-1.5,3-3,4.5-4.5c-0.9-0.9-1.9-1.9-2.7-2.7
	c-1.5,1.5-3,3-4.5,4.5C67,19.4,67.9,20.3,68.7,21.2z M46.1,10.3c0-2.2,0-4.4,0-6.5c-1.4,0-2.7,0-4.1,0c0,1.1,0,2.2,0,3.3
	c0,1.1,0,2.2,0,3.3C43.5,10.3,44.8,10.3,46.1,10.3z"/>
<path class="st1" d="M36.4,44.8c0-1.9,1.2-4.1,3.5-5.6c4.5-3,9.1-5.9,13.6-8.9c1.2-0.7,2.3-1.5,3.5-2.1c1.2-0.7,2.5-0.5,3.5,0.4
	c0.9,0.9,1.2,2.2,0.6,3.4c-3.2,5.9-6.4,11.8-9.8,17.7c-1.6,2.8-4.1,4.2-7.3,4.1C39.7,53.6,36.3,50,36.4,44.8z M44.3,41.3
	c-2.5,0-4.4,2-4.4,4.5c0,2.4,2,4.4,4.4,4.4c2.5,0,4.4-2,4.4-4.4C48.7,43.3,46.8,41.3,44.3,41.3z"/>
</svg>
