<svg xmlns="http://www.w3.org/2000/svg" width="83" height="74" viewBox="0 0 83 74">
  <defs>
    <style>
      .cls-1 {
        fill: #d1d1d1;
        fill-rule: evenodd;
      }
    </style>
  </defs>
  <path class="cls-1" d="M259.046,5063.13a1.624,1.624,0,0,0-1.621,1.62v5.17a8.105,8.105,0,0,0,8.1,8.08H287.9a8.1,8.1,0,0,0,8.105-8.08v-19.39a8.1,8.1,0,0,0-8.105-8.08H277.413c0.369-12.07,4.964-18.34,14.015-19.16a1.618,1.618,0,0,0,1.474-1.61v-16.07a1.618,1.618,0,0,0-.507-1.17,1.644,1.644,0,0,0-1.114-.44H291.19c-11.17.63-19.7,4.46-25.344,11.39-5.587,6.86-8.421,16.88-8.421,29.78v5.79a1.621,1.621,0,0,0,3.242,0v-5.79c0-23.69,9.489-36.08,28.993-37.82v12.9a16.189,16.189,0,0,0-11.348,6.81c-2.764,3.99-4.165,9.71-4.165,17.01a1.624,1.624,0,0,0,1.621,1.62H287.9a4.856,4.856,0,0,1,4.863,4.84v19.39a4.864,4.864,0,0,1-4.863,4.85H265.53a4.865,4.865,0,0,1-4.863-4.85v-5.17A1.623,1.623,0,0,0,259.046,5063.13ZM221.116,5078h22.369a8.105,8.105,0,0,0,8.1-8.08v-19.39a8.105,8.105,0,0,0-8.1-8.08H233c0.369-12.07,4.963-18.34,14.014-19.16a1.618,1.618,0,0,0,1.474-1.61v-16.07a1.618,1.618,0,0,0-.507-1.17,1.642,1.642,0,0,0-1.113-.44h-0.091c-11.17.63-19.7,4.46-25.344,11.39-5.588,6.86-8.421,16.88-8.421,29.78v24.75A8.105,8.105,0,0,0,221.116,5078Zm-4.863-32.83c0-23.69,9.488-36.08,28.992-37.82v12.9a16.189,16.189,0,0,0-11.347,6.81c-2.764,3.99-4.165,9.71-4.165,17.01a1.623,1.623,0,0,0,1.621,1.62h12.131a4.857,4.857,0,0,1,4.863,4.84v19.39a4.865,4.865,0,0,1-4.863,4.85H224.033v-11.96a1.621,1.621,0,0,0-3.242,0v11.95a4.869,4.869,0,0,1-4.538-4.84v-24.75Zm6.159,13.64a1.62,1.62,0,1,0-1.621-1.62v0.01A1.609,1.609,0,0,0,222.412,5058.81Zm36.634,0.66a1.615,1.615,0,0,0,1.621-1.61v-0.04a1.621,1.621,0,0,0-3.242,0v0.04A1.615,1.615,0,0,0,259.046,5059.47Z" transform="translate(-213 -5004)"/>
</svg>
