<svg xmlns="http://www.w3.org/2000/svg" width="83" height="74" viewBox="0 0 83 74">
  <defs>
    <style>
      .cls-1 {
        fill: #d1d1d1;
        fill-rule: evenodd;
      }
    </style>
  </defs>
  <path id="Shape_15_copy" data-name="Shape 15 copy" class="cls-1" d="M1338.95,5018.86a1.611,1.611,0,0,0,1.62-1.61v-5.17a8.094,8.094,0,0,0-8.1-8.08H1310.1a8.094,8.094,0,0,0-8.1,8.08v19.38a8.094,8.094,0,0,0,8.1,8.08h10.49c-0.37,12.07-4.97,18.35-14.02,19.17a1.612,1.612,0,0,0-1.47,1.61v16.06a1.6,1.6,0,0,0,.51,1.18,1.636,1.636,0,0,0,1.11.44h0.09c11.17-.63,19.7-4.46,25.34-11.39,5.59-6.86,8.42-16.88,8.42-29.79v-5.79a1.62,1.62,0,0,0-3.24,0v5.79c0,23.7-9.49,36.09-28.99,37.83v-12.9a16.248,16.248,0,0,0,11.35-6.82c2.76-3.99,4.16-9.71,4.16-17a1.613,1.613,0,0,0-1.62-1.62H1310.1a4.857,4.857,0,0,1-4.86-4.85v-19.38a4.857,4.857,0,0,1,4.86-4.85h22.37a4.857,4.857,0,0,1,4.86,4.85v5.17A1.618,1.618,0,0,0,1338.95,5018.86Zm37.93-14.86h-22.37a8.1,8.1,0,0,0-8.1,8.08v19.38a8.1,8.1,0,0,0,8.1,8.08H1365c-0.37,12.07-4.96,18.35-14.01,19.17a1.613,1.613,0,0,0-1.48,1.61v16.06a1.62,1.62,0,0,0,1.62,1.62h0.09c11.17-.63,19.7-4.46,25.35-11.39,5.59-6.86,8.42-16.88,8.42-29.79v-24.74A8.1,8.1,0,0,0,1376.88,5004Zm4.87,32.82c0,23.7-9.49,36.09-29,37.83v-12.9a16.228,16.228,0,0,0,11.35-6.82c2.77-3.99,4.17-9.71,4.17-17a1.62,1.62,0,0,0-1.62-1.62h-12.14a4.857,4.857,0,0,1-4.86-4.85v-19.38a4.857,4.857,0,0,1,4.86-4.85h19.46v11.96a1.62,1.62,0,1,0,3.24,0v-11.95a4.863,4.863,0,0,1,4.54,4.84v24.74Zm-6.16-13.63a1.615,1.615,0,1,0,1.62,1.62v-0.02A1.609,1.609,0,0,0,1375.59,5023.19Zm-36.64-.66a1.618,1.618,0,0,0-1.62,1.61v0.03a1.62,1.62,0,1,0,3.24,0v-0.03A1.611,1.611,0,0,0,1338.95,5022.53Z" transform="translate(-1302 -5004)"/>
</svg>
