<?xml version="1.0" encoding="utf-8"?>
<!-- Generator: Adobe Illustrator 23.0.1, SVG Export Plug-In . SVG Version: 6.00 Build 0)  -->
<svg version="1.1" id="Layer_1" xmlns="http://www.w3.org/2000/svg" xmlns:xlink="http://www.w3.org/1999/xlink" x="0px" y="0px"
	 viewBox="0 0 84.8 101.8" style="enable-background:new 0 0 84.8 101.8;" xml:space="preserve">
<style type="text/css">
	.st0{fill:#ED5909;}
	.st1{fill:#FAC94F;}
</style>
<path class="st0" d="M0,44c0-1.2,0-2.4,0-3.6c0.1-0.4,0.1-0.7,0.2-1.1c0.3-2.1,0.5-4.3,0.9-6.4C6.4,10.3,28.1-3.7,51,0.8
	c16.5,3.3,30,16.9,33,33.4c0.3,1.8,0.5,3.6,0.8,5.4c0,1.7,0,3.5,0,5.2c-0.1,0.3-0.2,0.6-0.2,1c-0.4,5.6-2,10.9-4.5,15.8
	c-2.3,4.6-5.6,8.4-9.2,12.1c-8.2,8.4-16.2,17-24.3,25.5c-1.1,1.1-2.1,2.2-3.6,2.6c-0.4,0-0.8,0-1.2,0c-0.9-0.6-2-1-2.8-1.8
	c-2.7-2.7-5.4-5.6-8-8.4c-6.2-6.5-12.4-13-18.7-19.5C5.9,65.5,2,57.8,0.6,48.8C0.4,47.2,0.2,45.6,0,44z M42.5,16.8
	C28.7,16.7,17,28.1,16.9,41.7c-0.1,14.4,11.1,25.9,25.2,26c14,0.1,25.1-11,25.3-25.1C67.7,27.9,56.3,17.2,42.5,16.8z"/>
<path class="st1" d="M38.3,23.7c2.8,0,5.5,0,8.3,0c0,2.8,0,11.5,0,14.3c2.9,0,5.6,0,8.5,0c0,2.9,0,5.6,0,8.4c-0.3,0-0.7,0.1-1,0.1
	c-3.7,0-7.4,0-11.1,0c-3,0-4.7-1.7-4.7-4.7c0-3.7,0-13.4,0-17.1C38.2,24.4,38.3,24.1,38.3,23.7z"/>
</svg>
