<svg xmlns="http://www.w3.org/2000/svg" width="17.47" height="14.375" viewBox="0 0 17.47 14.375">
  <defs>
    <style>
      .cls-1 {
        fill: #fff;
        fill-rule: evenodd;
      }
    </style>
  </defs>
  <path class="cls-1" d="M1420,14.5a6.964,6.964,0,0,1-2.06.572,3.653,3.653,0,0,0,1.58-2.01,7.17,7.17,0,0,1-2.28.881,3.561,3.561,0,0,0-2.62-1.147,3.606,3.606,0,0,0-3.58,3.635,3.769,3.769,0,0,0,.09.829,10.138,10.138,0,0,1-7.39-3.8,3.659,3.659,0,0,0,1.11,4.854,3.582,3.582,0,0,1-1.63-.455v0.046a3.63,3.63,0,0,0,2.88,3.565,3.607,3.607,0,0,1-.95.127,3.548,3.548,0,0,1-.67-0.065,3.6,3.6,0,0,0,3.35,2.524,7.154,7.154,0,0,1-5.31,1.506,10.065,10.065,0,0,0,5.5,1.633,10.21,10.21,0,0,0,10.2-10.343c0-.157,0-0.314-0.01-0.471A7.32,7.32,0,0,0,1420,14.5Z" transform="translate(-1402.53 -12.813)"/>
</svg>
